<svg xmlns="http://www.w3.org/2000/svg" version="1.1" xmlns:xlink="http://www.w3.org/1999/xlink" xmlns:svgjs="http://svgjs.dev/svgjs" width="1500" height="1500" viewBox="0 0 1500 1500"><rect width="1500" height="1500" fill="#162836"></rect><g transform="matrix(0.6666666666666666,0,0,0.6666666666666666,250,246.54891494160728)"><svg viewBox="0 0 280 281" data-background-color="#162836" preserveAspectRatio="xMidYMid meet" height="1505" width="1500" xmlns="http://www.w3.org/2000/svg" xmlns:xlink="http://www.w3.org/1999/xlink"><g id="tight-bounds" transform="matrix(1,0,0,1,0,0.5002442843104973)"><svg viewBox="0 0 280 280" height="280" width="280"><g><svg viewBox="0 0 280 280" height="280" width="280"><g><svg viewBox="0 0 280 280" height="280" width="280"><g id="textblocktransform"><svg viewBox="0 0 280 280" height="280" width="280" id="textblock"><g><svg viewBox="0 0 280 280" height="280" width="280"><g transform="matrix(1,0,0,1,94.02175666433658,90.50252531694167)"><svg viewBox="0 0 91.95648667132683 98.99494936611666" height="98.99494936611666" width="91.95648667132683"><g id="icon-0"><svg xmlns="http://www.w3.org/2000/svg" xmlns:xlink="http://www.w3.org/1999/xlink" version="1.1" x="0" y="0" viewBox="8.199 5 83.602 90.001" enable-background="new 0 0 100 100" xml:space="preserve" height="98.99494936611666" width="91.95648667132683" class="icon-jxe-0" data-fill-palette-color="accent" id="jxe-0"><path d="M91.801 33.333A44.6 44.6 0 0 0 86.737 24.036 17.94 17.94 0 0 1 77.694 26.462C67.702 26.462 59.602 18.362 59.602 8.382 59.602 7.594 59.655 6.827 59.76 6.071 56.617 5.368 53.352 5 50 5S43.381 5.368 40.24 6.072C40.345 6.828 40.398 7.595 40.398 8.383 40.398 18.363 32.298 26.463 22.306 26.463A17.95 17.95 0 0 1 13.261 24.037 44.7 44.7 0 0 0 8.199 33.334C15.047 38.04 19.533 45.919 19.533 54.849A26 26 0 0 1 11.644 73.528V73.538A45 45 0 0 0 19.533 83.109 18 18 0 0 1 31.92 78.192C41.481 78.192 49.307 85.609 49.947 95.001H50.053C50.694 85.609 58.52 78.192 68.08 78.192 72.881 78.192 77.23 80.062 80.465 83.109A45 45 0 0 0 88.356 73.538V73.528A25.98 25.98 0 0 1 80.465 54.849C80.465 45.918 84.951 38.039 91.801 33.333" fill="#d5a187" data-fill-palette-color="accent"></path></svg></g></svg></g><g id="text-0"><path d="M12.349 82.532l-0.764-0.276-1.701 4.699 12.049 11.523-16.8 1.609-1.519 4.197 0.764 0.276 0.851-2.349 16.071 5.815-0.85 2.35 0.764 0.276 2.124-5.87c-0.432-0.156-0.734-0.087-0.907 0.208v0c-0.054 0.09-0.099 0.183-0.134 0.28v0l-0.573 1.586-12.61-4.563 15.842-1.529 0.224-0.619-12.656-12.235 14.196 5.137-0.847 2.34 0.764 0.276 2.547-7.039c-0.432-0.156-0.734-0.087-0.906 0.208v0c-0.054 0.09-0.099 0.183-0.134 0.279v0l-0.574 1.586-16.071-5.815z" fill="#cf7650" data-fill-palette-color="primary"></path><path d="M33.327 71.5v0c-1.608-0.917-3.394-0.788-5.36 0.387v0c-0.376 0.243-1.458 1.027-3.247 2.35v0c-1.602 1.217-2.882 1.828-3.841 1.835v0c-0.521-0.013-1.008-0.149-1.46-0.408v0c-1.209-0.69-1.714-1.755-1.515-3.196v0c0.092-0.618 0.313-1.234 0.663-1.848v0c0.866-1.518 2.041-2.38 3.523-2.584v0c1.002-0.123 2.003 0.113 3.005 0.709v0l0.464-0.813-4.743-2.706c-0.248 0.435-0.255 0.766-0.022 0.993v0c0.105 0.107 0.264 0.222 0.479 0.345v0c-1.433 0.879-2.608 2.123-3.526 3.73v0c-1.114 1.953-1.439 3.781-0.974 5.483v0c0.345 1.152 1.024 2.017 2.036 2.594v0c1.518 0.866 3.241 0.725 5.169-0.425v0c0.337-0.218 1.384-0.986 3.138-2.306v0c1.654-1.211 2.974-1.823 3.961-1.837v0c0.549 0.006 1.068 0.148 1.556 0.427v0c1.262 0.72 1.823 1.853 1.684 3.399v0c-0.079 0.72-0.32 1.432-0.721 2.135v0c-1.612 2.743-4.177 3.316-7.694 1.719v0l-0.464 0.813 5.61 3.2c0.248-0.435 0.267-0.759 0.058-0.973v0c-0.128-0.121-0.38-0.288-0.756-0.502v0c1.712-0.87 3.073-2.189 4.082-3.958v0c1.186-2.078 1.543-4.005 1.073-5.782v0c-0.35-1.226-1.076-2.153-2.178-2.781z" fill="#cf7650" data-fill-palette-color="primary"></path><path d="M39.846 70.97l4.806-5.94-0.631-0.511-1.546 1.911-6.036-4.884 1.863-2.303 9.805 1.518 2.963-3.661c-0.357-0.289-0.637-0.357-0.841-0.204v0c-0.081 0.067-0.168 0.159-0.263 0.277v0l-0.744 0.919-9.408-1.158c0.869-1.837 0.917-3.536 0.142-5.097v0c-0.312-0.606-0.719-1.111-1.22-1.516v0c-1.21-0.979-2.607-1.236-4.191-0.772v0c-1.271 0.383-2.417 1.205-3.439 2.469v0l-5.809 7.178 0.631 0.511 1.572-1.942 13.286 10.751-1.572 1.943zM29.189 55.678l1.96-2.422c1.126-1.391 2.469-1.896 4.03-1.514v0c0.637 0.172 1.214 0.467 1.731 0.885v0c1.167 0.944 1.748 2.08 1.741 3.406v0c-0.007 0.903-0.306 1.719-0.897 2.449v0l-2.018 2.494z" fill="#cf7650" data-fill-palette-color="primary"></path><path d="M52.393 55.949l11.385-10.331-4.294-4.824-0.51 0.463 1.531 2.652c0.85 1.589 0.688 2.931-0.486 4.024v0l-5.704 5.176-2.74-20.802-0.443-0.487-10.281 9.329 3.589 4.368 0.464-0.422-0.988-2.894c-0.432-1.404-0.261-2.471 0.512-3.2v0l5.034-4.568 2.51 21.052z" fill="#cf7650" data-fill-palette-color="primary"></path><path d="M85.453 22.512l-6.764 3.811 0.399 0.708 2.445-1.378 2.389 4.237c-0.295 1.599-1.169 2.89-2.622 3.874v0c-0.133 0.099-0.272 0.188-0.415 0.269v0c-3.628 1.997-6.869 0.483-9.724-4.541v0c-2.43-4.312-2.534-7.547-0.311-9.705v0c0.393-0.363 0.844-0.688 1.351-0.974v0c1.863-1.05 3.504-1.294 4.923-0.733v0c0.935 0.402 2.044 1.232 3.329 2.492v0l0.707-0.399-3.108-5.201-2.087 1.826c-1.457 0.081-2.828 0.484-4.112 1.208v0c-2.174 1.225-3.637 2.994-4.388 5.305v0c-0.817 2.53-0.51 5.064 0.921 7.603v0c1.632 2.897 3.941 4.578 6.926 5.044v0c2.152 0.314 4.163-0.056 6.033-1.11v0c1.356-0.764 2.418-1.756 3.186-2.976v0c0.103-0.152 0.182-0.291 0.237-0.417v0l2.777-0.455-3.736-6.63 2.043-1.151z" fill="#cf7650" data-fill-palette-color="primary"></path><path d="M94.176 14.533v0c1.368-0.511 2.488-0.274 3.361 0.711v0c0.3 0.313 0.53 0.684 0.69 1.114v0c0.362 0.97 0.115 1.739-0.741 2.308v0c-0.452 0.279-1.128 0.575-2.028 0.888v0l-3.135 1.072c-0.74-2.278-0.554-4.012 0.561-5.204v0c0.354-0.403 0.785-0.699 1.292-0.889zM102.691 21.816v0l-0.83 0.013c-0.129 1.731-0.919 2.978-2.369 3.739v0c-0.185 0.091-0.365 0.169-0.538 0.234v0c-2.049 0.765-3.791 0.028-5.227-2.21v0c-0.408-0.623-0.774-1.339-1.098-2.147v0l3.529-1.252c2.391-0.849 3.836-1.644 4.334-2.386v0c0.38-0.588 0.436-1.242 0.167-1.962v0c-0.494-1.323-1.557-2.123-3.189-2.398v0c-1.168-0.208-2.375-0.079-3.621 0.386v0c-2.434 0.909-3.8 2.571-4.099 4.987v0c-0.153 1.257 0.018 2.547 0.512 3.871v0c0.902 2.415 2.438 3.883 4.608 4.404v0c1.288 0.295 2.594 0.195 3.917-0.298v0c2.107-0.786 3.372-2.122 3.795-4.008v0c0.057-0.336 0.094-0.661 0.109-0.973z" fill="#cf7650" data-fill-palette-color="primary"></path><path d="M112.666 21.744v0l-1.366 0.298-1.438-6.58c-0.352-1.902 0.02-3.408 1.118-4.518v0c0.473-0.468 0.994-0.765 1.564-0.889v0c1.239-0.271 2.21 0.124 2.911 1.185v0c0.283 0.429 0.489 0.939 0.618 1.528v0l1.317 6.028c0.205 0.938 0.063 1.555-0.427 1.851v0c-0.279 0.166-0.767 0.326-1.464 0.478v0l0.167 0.763 6.862-1.499c-0.098-0.449-0.306-0.66-0.623-0.632v0c-0.085-0.003-0.187 0.009-0.308 0.035v0l-1.527 0.334-1.65-7.555c-0.443-2.029-1.461-3.33-3.053-3.902v0c-0.733-0.24-1.475-0.278-2.225-0.113v0c-1.507 0.329-2.615 1.199-3.324 2.61v0c-0.267 0.543-0.449 1.123-0.546 1.74v0l-0.786-3.017-4.42 0.966 0.167 0.763 2.28-0.498 2.096 9.594c0.205 0.938 0.066 1.554-0.417 1.849v0c-0.286 0.168-0.774 0.327-1.464 0.478v0l0.167 0.764 6.701-1.465c-0.098-0.449-0.302-0.66-0.612-0.634v0c-0.085-0.003-0.191 0.01-0.318 0.038z" fill="#cf7650" data-fill-palette-color="primary"></path><path d="M140.254 18.438v0l-1.56 0.097-0.775-12.449-4.886 0.304 0.049 0.78 2.555-0.159 0.419 6.722c0.116 1.868-0.452 3.277-1.704 4.228v0c-0.557 0.433-1.147 0.669-1.77 0.708v0c-1.704 0.106-2.743-0.705-3.119-2.433v0c-0.059-0.285-0.099-0.595-0.12-0.93v0l-0.539-8.653-4.731 0.295 0.048 0.78 2.392-0.149 0.462 7.411c0.241 3.543 1.837 5.233 4.787 5.069v0c1.553-0.097 2.79-0.809 3.71-2.137v0c0.347-0.496 0.615-1.041 0.805-1.637v0l0.413 3.158 4.393-0.273c-0.029-0.458-0.202-0.698-0.519-0.72v0c-0.083-0.015-0.187-0.019-0.31-0.012z" fill="#cf7650" data-fill-palette-color="primary"></path><path d="M150.495 18.879v0l-1.561-0.085 0.681-12.456-4.826-0.263-0.043 0.78 2.495 0.136-0.536 9.807c-0.052 0.958-0.406 1.523-1.06 1.692v0c-0.319 0.065-0.832 0.078-1.537 0.04v0l-0.043 0.78 7.167 0.392c0.025-0.459-0.119-0.717-0.431-0.775v0c-0.102-0.026-0.204-0.042-0.306-0.048zM150.233 1.81v0c0.04-0.726-0.254-1.26-0.88-1.604v0c-0.24-0.123-0.474-0.191-0.7-0.203v0c-0.726-0.04-1.264 0.264-1.615 0.911v0c-0.115 0.227-0.18 0.464-0.193 0.711v0c-0.042 0.767 0.271 1.316 0.939 1.647v0c0.221 0.095 0.448 0.148 0.682 0.161v0c0.726 0.04 1.25-0.265 1.574-0.913v0c0.115-0.22 0.179-0.457 0.193-0.71z" fill="#cf7650" data-fill-palette-color="primary"></path><path d="M160.396 20.378v0l-1.377-0.242 1.164-6.634c0.395-1.894 1.311-3.146 2.748-3.757v0c0.615-0.254 1.21-0.331 1.784-0.229v0c1.249 0.219 1.997 0.953 2.245 2.2v0c0.099 0.505 0.097 1.054-0.008 1.648v0l-1.067 6.078c-0.166 0.945-0.532 1.462-1.097 1.551v0c-0.322 0.048-0.834 0.01-1.536-0.113v0l-0.135 0.769 6.918 1.215c0.079-0.452-0.033-0.726-0.336-0.821v0c-0.077-0.034-0.177-0.062-0.298-0.084v0l-1.54-0.27 1.337-7.617c0.359-2.046-0.089-3.635-1.345-4.768v0c-0.587-0.5-1.259-0.816-2.016-0.949v0c-1.519-0.267-2.875 0.118-4.066 1.156v0c-0.453 0.401-0.842 0.869-1.165 1.403v0l0.417-3.09-4.456-0.783-0.135 0.77 2.299 0.404-1.698 9.673c-0.166 0.945-0.528 1.463-1.087 1.552v0c-0.328 0.047-0.84 0.009-1.536-0.113v0l-0.135 0.77 6.756 1.186c0.079-0.452-0.029-0.726-0.326-0.819v0c-0.077-0.034-0.18-0.063-0.309-0.086z" fill="#cf7650" data-fill-palette-color="primary"></path><path d="M183.119 13.596v0c1.39 0.447 2.123 1.327 2.197 2.64v0c0.041 0.431-0.008 0.865-0.149 1.303v0c-0.317 0.986-0.987 1.436-2.011 1.351v0c-0.528-0.062-1.242-0.248-2.143-0.559v0l-3.124-1.102c0.83-2.246 2.052-3.492 3.664-3.737v0c0.528-0.097 1.05-0.062 1.566 0.104zM185.288 24.588v0l-0.659-0.504c-1.174 1.279-2.567 1.767-4.176 1.466v0c-0.202-0.043-0.391-0.093-0.568-0.15v0c-2.082-0.669-2.993-2.327-2.733-4.973v0c0.066-0.742 0.222-1.531 0.469-2.366v0l3.545 1.205c2.402 0.816 4.029 1.087 4.881 0.813v0c0.663-0.226 1.112-0.705 1.347-1.436v0c0.432-1.345 0.093-2.631-1.017-3.859v0c-0.788-0.887-1.815-1.534-3.081-1.941v0c-2.474-0.795-4.576-0.337-6.307 1.375v0c-0.899 0.892-1.565 2.01-1.997 3.354v0c-0.789 2.454-0.493 4.558 0.887 6.313v0c0.828 1.03 1.915 1.761 3.259 2.193v0c2.141 0.688 3.961 0.424 5.462-0.793v0c0.253-0.228 0.483-0.46 0.688-0.697z" fill="#cf7650" data-fill-palette-color="primary"></path><path d="M194.648 32.095l11.948 6.636 3.166-5.382-0.549-0.305-1.477 1.58c-1.366 1.429-2.624 1.978-3.772 1.645v0c-0.236-0.084-0.455-0.182-0.66-0.295v0l-3.73-2.073 8.299-14.941 2.292 1.273 0.394-0.71-6.823-3.79-0.394 0.71 2.184 1.214-8.299 14.941-2.184-1.213z" fill="#cf7650" data-fill-palette-color="primary"></path><path d="M221.742 33.965v0c1.176 0.865 1.591 1.932 1.245 3.201v0c-0.098 0.422-0.282 0.818-0.555 1.188v0c-0.613 0.834-1.392 1.048-2.337 0.643v0c-0.481-0.226-1.099-0.63-1.854-1.211v0l-2.612-2.037c1.501-1.866 3.055-2.659 4.661-2.38v0c0.531 0.076 1.015 0.275 1.452 0.596zM220.307 45.077v0l-0.465-0.687c-1.52 0.839-2.995 0.861-4.425 0.063v0c-0.178-0.105-0.341-0.213-0.491-0.322v0c-1.762-1.296-2.099-3.157-1.012-5.584v0c0.298-0.683 0.697-1.381 1.197-2.094v0l2.978 2.268c2.019 1.536 3.475 2.31 4.37 2.321v0c0.701-0.004 1.278-0.315 1.733-0.933v0c0.837-1.138 0.924-2.465 0.262-3.983v0c-0.465-1.091-1.234-2.031-2.305-2.819v0c-2.093-1.54-4.232-1.773-6.418-0.7v0c-1.136 0.56-2.122 1.409-2.958 2.547v0c-1.528 2.076-1.916 4.166-1.164 6.267v0c0.458 1.239 1.256 2.278 2.393 3.115v0c1.811 1.333 3.622 1.66 5.431 0.983v0c0.313-0.136 0.604-0.283 0.874-0.442z" fill="#cf7650" data-fill-palette-color="primary"></path><path d="M228.877 57.762v0c1.149 1.11 2.457 1.029 3.923-0.243v0c0.101-0.074 0.186-0.149 0.258-0.223v0l-0.563-0.587c-1.156 0.99-1.98 1.261-2.473 0.814v0c-0.361-0.406-0.189-0.988 0.515-1.747v0l4.571-4.734c2.067-2.14 2.087-4.303 0.062-6.488v0c-0.133-0.129-0.269-0.26-0.407-0.393v0c-1.672-1.614-3.168-2.311-4.488-2.089v0c-0.425 0.085-0.762 0.256-1.009 0.512v0c-0.448 0.464-0.49 0.942-0.128 1.435v0c0.06 0.086 0.127 0.165 0.201 0.236v0c0.345 0.333 0.809 0.362 1.391 0.085v0c0.745-0.348 1.208-0.54 1.386-0.577v0c0.648-0.099 1.27 0.14 1.867 0.717v0c1.315 1.451 1.295 2.923-0.061 4.415v0l-1.365 1.413c-3.516-3.396-6.236-4.606-8.158-3.632v0c-0.365 0.2-0.707 0.466-1.026 0.796v0c-1.095 1.134-1.345 2.394-0.748 3.781v0c0.247 0.553 0.595 1.047 1.044 1.48v0c1.095 1.057 2.374 1.573 3.838 1.547v0c0.547-0.024 1.04-0.13 1.478-0.317v0c-1.103 1.508-1.139 2.774-0.108 3.799zM225.273 52.552v0c-0.912-0.881-1.032-1.878-0.358-2.99v0c0.156-0.25 0.357-0.503 0.605-0.76v0c0.967-1.001 2.156-1.083 3.567-0.244v0c0.745 0.462 1.707 1.248 2.885 2.357v0l-1.729 1.79c-1.222 0.821-2.469 1.023-3.742 0.604v0c-0.488-0.185-0.897-0.438-1.228-0.757z" fill="#cf7650" data-fill-palette-color="primary"></path><path d="M242.528 52.543l-0.604 0.497 1.385 1.683-6.789 5.587c-1.915 1.762-2.19 3.537-0.825 5.326v0c1.215 1.477 2.881 1.656 4.996 0.537v0c0.016-0.013 0.032-0.026 0.048-0.04v0l-0.409-0.755c-1.665 0.695-2.871 0.702-3.618 0.02v0c-0.683-0.894-0.43-1.844 0.759-2.848v0l7.321-6.024 3.078 3.74 0.603-0.497-3.077-3.74 2.795-2.3-1.991-1.384-2.287 1.882z" fill="#cf7650" data-fill-palette-color="primary"></path><path d="M243.592 74.963v0l-0.843-1.317 5.674-3.631c1.594-1.02 3.102-1.208 4.523-0.563v0c0.592 0.264 1.045 0.641 1.36 1.132v0c0.684 1.068 0.661 2.133-0.069 3.194v0c-0.352 0.494-0.816 0.925-1.393 1.295v0l-4.937 3.16c-0.808 0.517-1.414 0.633-1.818 0.345v0c-0.242-0.187-0.553-0.578-0.934-1.173v0l-0.658 0.422 3.697 5.777c0.387-0.248 0.513-0.515 0.378-0.803v0c-0.027-0.08-0.074-0.173-0.141-0.277v0l-0.842-1.316 6.513-4.169c1.911-1.223 2.805-2.682 2.681-4.377v0c-0.072-0.646-0.287-1.249-0.645-1.809v0c-0.828-1.293-1.993-2.078-3.496-2.354v0c-0.641-0.111-1.276-0.099-1.907 0.036v0l8.428-5.394-2.522-3.941-0.65 0.416 1.264 1.975-14.188 9.08c-0.808 0.517-1.437 0.598-1.884 0.242v0c-0.257-0.21-0.575-0.613-0.956-1.208v0l-0.658 0.421 3.781 5.908c0.387-0.248 0.514-0.512 0.382-0.795v0c-0.027-0.08-0.074-0.173-0.14-0.276z" fill="#cf7650" data-fill-palette-color="primary"></path><path d="M263.879 87.003v0c0.611 1.326 0.458 2.461-0.459 3.404v0c-0.289 0.322-0.643 0.579-1.06 0.771v0c-0.94 0.433-1.726 0.244-2.356-0.568v0c-0.311-0.43-0.657-1.082-1.037-1.957v0l-1.301-3.046c2.216-0.907 3.96-0.85 5.231 0.172v0c0.428 0.324 0.756 0.731 0.982 1.224zM257.249 96.034v0l-0.075-0.826c-1.736 0-3.038-0.696-3.904-2.085v0c-0.105-0.178-0.196-0.351-0.273-0.52v0c-0.915-1.986-0.31-3.778 1.815-5.376v0c0.591-0.453 1.278-0.872 2.06-1.254v0l1.51 3.425c1.024 2.321 1.924 3.703 2.702 4.146v0c0.615 0.336 1.271 0.343 1.968 0.021v0c1.283-0.591 2.001-1.71 2.156-3.359v0c0.121-1.18-0.097-2.374-0.654-3.582v0c-1.087-2.36-2.846-3.599-5.278-3.717v0c-1.265-0.059-2.539 0.207-3.822 0.798v0c-2.341 1.078-3.692 2.719-4.05 4.922v0c-0.198 1.307-0.002 2.601 0.588 3.884v0c0.941 2.042 2.367 3.205 4.278 3.487v0c0.339 0.032 0.666 0.044 0.979 0.036z" fill="#cf7650" data-fill-palette-color="primary"></path><path d="M258.498 106.906v0l-0.681-2.136 5.908-1.883c1.803-0.575 3.427-0.48 4.872 0.282v0c0.558 0.304 0.893 0.6 1.006 0.889v0c0.108 0.34-0.042 0.726-0.451 1.158v0c-0.453 0.497-0.675 0.895-0.667 1.194v0c-0.002 0.13 0.016 0.254 0.054 0.372v0c0.189 0.594 0.598 0.882 1.224 0.862v0c0.13 0.002 0.254-0.016 0.372-0.054v0c0.895-0.285 1.295-0.916 1.199-1.893v0c-0.023-0.208-0.063-0.401-0.119-0.577v0c-0.379-1.189-1.22-2.09-2.524-2.704v0c-0.616-0.286-1.262-0.461-1.938-0.526v0l2.902-1.055-1.374-4.311-0.744 0.237 0.712 2.234-9.358 2.982c-0.914 0.291-1.542 0.207-1.883-0.252v0c-0.194-0.269-0.398-0.74-0.612-1.413v0l-0.744 0.237 2.338 7.339c0.438-0.139 0.629-0.362 0.575-0.669v0c-0.005-0.085-0.028-0.189-0.067-0.313z" fill="#cf7650" data-fill-palette-color="primary"></path><path d="M33.555 195.735l0.764-0.277-1.7-4.699-16.633-1.145 11.881-11.987-1.518-4.197-0.764 0.276 0.85 2.35-16.072 5.815-0.85-2.35-0.764 0.277 2.124 5.87c0.432-0.156 0.62-0.403 0.564-0.74v0c-0.016-0.104-0.041-0.204-0.076-0.301v0l-0.574-1.586 12.609-4.562-11.195 11.312 0.224 0.619 17.554 1.304-14.196 5.136-0.847-2.34-0.764 0.276 2.548 7.04c0.432-0.156 0.62-0.403 0.563-0.74v0c-0.016-0.104-0.041-0.204-0.076-0.3v0l-0.574-1.586 16.072-5.815z" fill="#cf7650" data-fill-palette-color="primary"></path><path d="M30.317 216.158v0c1.608-0.917 2.406-2.521 2.393-4.811v0c-0.018-0.447-0.142-1.778-0.371-3.992v0c-0.233-1.998-0.107-3.412 0.375-4.239v0c0.277-0.442 0.641-0.792 1.094-1.051v0c1.209-0.69 2.383-0.582 3.523 0.323v0c0.485 0.394 0.903 0.898 1.253 1.511v0c0.866 1.518 1.01 2.968 0.432 4.347v0c-0.404 0.925-1.117 1.667-2.139 2.227v0l0.463 0.813 4.743-2.706c-0.248-0.435-0.529-0.61-0.844-0.525v0c-0.145 0.036-0.325 0.115-0.539 0.237v0c-0.028-1.681-0.5-3.326-1.418-4.934v0c-1.114-1.953-2.523-3.162-4.225-3.627v0c-1.167-0.289-2.257-0.145-3.269 0.432v0c-1.518 0.866-2.273 2.422-2.264 4.666v0c0.016 0.401 0.145 1.693 0.388 3.875v0c0.201 2.04 0.056 3.488-0.434 4.345v0c-0.284 0.47-0.671 0.844-1.159 1.123v0c-1.262 0.72-2.523 0.627-3.783-0.281v0c-0.58-0.435-1.07-1.004-1.471-1.706v0c-1.541-2.783-0.729-5.283 2.435-7.499v0l-0.464-0.813-5.609 3.201c0.248 0.435 0.517 0.616 0.808 0.545v0c0.169-0.049 0.441-0.181 0.817-0.395v0c-0.122 1.917 0.322 3.759 1.331 5.528v0c1.186 2.078 2.663 3.367 4.431 3.865v0c1.234 0.322 2.401 0.169 3.503-0.46z" fill="#cf7650" data-fill-palette-color="primary"></path><path d="M29.542 223.308l4.806 5.94 0.632-0.511-1.546-1.911 6.035-4.884 1.863 2.303-3.529 9.272 2.962 3.661c0.357-0.289 0.482-0.549 0.375-0.779v0c-0.049-0.093-0.12-0.198-0.215-0.315v0l-0.744-0.92 3.094-8.96c1.615 1.233 3.267 1.634 4.955 1.203v0c0.657-0.179 1.237-0.472 1.738-0.877v0c1.21-0.979 1.753-2.291 1.629-3.938v0c-0.109-1.323-0.675-2.616-1.697-3.878v0l-5.809-7.179-0.632 0.511 1.572 1.943-13.286 10.751-1.572-1.943zM46.72 216.075l1.96 2.422c1.126 1.391 1.339 2.81 0.64 4.257v0c-0.301 0.587-0.71 1.09-1.226 1.509v0c-1.167 0.944-2.399 1.275-3.695 0.992v0c-0.881-0.195-1.617-0.658-2.208-1.388v0l-2.019-2.494z" fill="#cf7650" data-fill-palette-color="primary"></path><path d="M43.485 239.807l11.385 10.331 4.386-4.741-0.51-0.463-2.491 1.781c-1.5 1-2.851 0.968-4.052-0.095v0l-5.704-5.176 20.438-4.741 0.442-0.487-10.281-9.33-3.999 3.995 0.464 0.421 2.786-1.263c1.356-0.566 2.434-0.499 3.234 0.199v0l5.034 4.568-20.71 4.536z" fill="#cf7650" data-fill-palette-color="primary"></path><path d="M87.215 260.302l-6.764-3.812-0.399 0.707 2.446 1.379-2.388 4.237c-1.52 0.575-3.077 0.497-4.672-0.236v0c-0.153-0.063-0.302-0.135-0.445-0.215v0c-3.587-2.069-3.971-5.626-1.151-10.671v0c2.43-4.312 5.144-6.076 8.141-5.292v0c0.514 0.148 1.026 0.365 1.533 0.651v0c1.863 1.05 2.922 2.327 3.176 3.832v0c0.14 1.008 0.004 2.387-0.408 4.138v0l0.708 0.399 2.839-5.353-2.643-0.84c-0.824-1.204-1.879-2.168-3.162-2.892v0c-2.174-1.225-4.444-1.56-6.811-1.005v0c-2.587 0.612-4.596 2.186-6.027 4.725v0c-1.632 2.897-1.875 5.743-0.727 8.537v0c0.846 2.004 2.204 3.532 4.073 4.586v0c1.356 0.764 2.754 1.159 4.196 1.184v0c0.184 0.009 0.344 0.005 0.479-0.013v0l1.828 2.14 3.736-6.63 2.043 1.151z" fill="#cf7650" data-fill-palette-color="primary"></path><path d="M98.489 259.855v0c1.368 0.511 2.059 1.424 2.073 2.739v0c0.021 0.432-0.048 0.864-0.209 1.294v0c-0.362 0.97-1.053 1.389-2.072 1.257v0c-0.524-0.086-1.229-0.305-2.114-0.658v0l-3.07-1.244c0.933-2.206 2.211-3.393 3.833-3.564v0c0.532-0.072 1.052-0.014 1.559 0.176zM100.148 270.935v0l-0.635-0.533c-1.232 1.223-2.645 1.647-4.24 1.271v0c-0.2-0.053-0.387-0.111-0.56-0.176v0c-2.049-0.765-2.882-2.463-2.5-5.094v0c0.1-0.738 0.293-1.519 0.578-2.341v0l3.485 1.366c2.362 0.926 3.975 1.272 4.838 1.038v0c0.673-0.195 1.144-0.652 1.412-1.372v0c0.494-1.323 0.215-2.624-0.837-3.902v0c-0.746-0.922-1.742-1.616-2.988-2.081v0c-2.434-0.909-4.556-0.548-6.365 1.082v0c-0.939 0.85-1.656 1.936-2.149 3.259v0c-0.902 2.415-0.703 4.531 0.594 6.347v0c0.78 1.067 1.831 1.847 3.155 2.341v0c2.107 0.786 3.938 0.606 5.492-0.541v0c0.264-0.216 0.504-0.438 0.72-0.664z" fill="#cf7650" data-fill-palette-color="primary"></path><path d="M110.17 275.619v0l-1.366-0.299 1.438-6.58c0.473-1.876 1.44-3.089 2.9-3.64v0c0.625-0.228 1.223-0.28 1.792-0.156v0c1.239 0.271 1.956 1.034 2.152 2.291v0c0.078 0.508 0.053 1.057-0.076 1.647v0l-1.317 6.028c-0.205 0.938-0.592 1.439-1.16 1.504v0c-0.323 0.035-0.833-0.024-1.53-0.176v0l-0.167 0.764 6.862 1.499c0.098-0.449-0.003-0.727-0.302-0.835v0c-0.076-0.038-0.174-0.07-0.294-0.096v0l-1.528-0.333 1.651-7.555c0.443-2.029 0.061-3.636-1.147-4.819v0c-0.566-0.524-1.224-0.868-1.974-1.032v0c-1.507-0.329-2.877-0.001-4.111 0.986v0c-0.469 0.382-0.877 0.833-1.222 1.354v0l0.545-3.07-4.421-0.966-0.167 0.764 2.281 0.498-2.096 9.594c-0.205 0.938-0.588 1.44-1.151 1.507v0c-0.33 0.033-0.84-0.026-1.529-0.176v0l-0.167 0.763 6.701 1.464c0.098-0.449 0.001-0.726-0.292-0.832v0c-0.076-0.038-0.178-0.07-0.305-0.098z" fill="#cf7650" data-fill-palette-color="primary"></path><path d="M139.527 279.171v0l-1.56-0.097 0.776-12.45-4.886-0.304-0.048 0.78 2.555 0.159-0.418 6.723c-0.116 1.868-0.855 3.196-2.217 3.983v0c-0.606 0.361-1.221 0.522-1.843 0.483v0c-1.704-0.106-2.635-1.04-2.793-2.801v0c-0.023-0.29-0.024-0.603-0.003-0.938v0l0.539-8.653-4.732-0.294-0.048 0.78 2.391 0.149-0.462 7.41c-0.2 3.546 1.173 5.421 4.122 5.625v0c1.553 0.097 2.869-0.457 3.946-1.66v0c0.406-0.449 0.74-0.957 1.002-1.525v0l0.018 3.185 4.393 0.274c0.029-0.458-0.113-0.718-0.426-0.779v0c-0.081-0.026-0.183-0.042-0.306-0.05z" fill="#cf7650" data-fill-palette-color="primary"></path><path d="M151.133 278.736v0l-1.561 0.085-0.681-12.455-4.826 0.263 0.043 0.781 2.495-0.137 0.536 9.807c0.052 0.958-0.238 1.558-0.87 1.798v0c-0.31 0.099-0.818 0.168-1.523 0.207v0l0.043 0.78 7.167-0.392c-0.025-0.459-0.196-0.7-0.513-0.723v0c-0.104-0.015-0.207-0.02-0.31-0.014zM149.012 261.797v0c-0.04-0.726-0.39-1.225-1.05-1.498v0c-0.252-0.096-0.492-0.138-0.717-0.126v0c-0.726 0.04-1.228 0.4-1.506 1.082v0c-0.09 0.238-0.128 0.481-0.115 0.727v0c0.042 0.767 0.413 1.279 1.114 1.535v0c0.23 0.07 0.462 0.098 0.694 0.086v0c0.726-0.04 1.214-0.399 1.466-1.079v0c0.09-0.232 0.129-0.474 0.114-0.727z" fill="#cf7650" data-fill-palette-color="primary"></path><path d="M162.418 277.078v0l-1.378 0.242-1.164-6.635c-0.273-1.915 0.161-3.404 1.304-4.467v0c0.492-0.448 1.025-0.723 1.599-0.824v0c1.249-0.219 2.203 0.215 2.86 1.304v0c0.265 0.441 0.45 0.958 0.554 1.552v0l1.067 6.078c0.166 0.945-0.002 1.556-0.503 1.832v0c-0.286 0.155-0.78 0.294-1.483 0.417v0l0.135 0.769 6.918-1.214c-0.079-0.452-0.278-0.672-0.596-0.658v0c-0.085-0.006-0.188 0.002-0.309 0.023v0l-1.539 0.271-1.337-7.617c-0.359-2.046-1.322-3.387-2.889-4.025v0c-0.723-0.27-1.462-0.338-2.218-0.205v0c-1.519 0.267-2.662 1.09-3.43 2.471v0c-0.29 0.531-0.495 1.103-0.617 1.716v0l-0.66-3.048-4.457 0.783 0.135 0.769 2.299-0.403 1.698 9.673c0.166 0.945 0.002 1.555-0.493 1.83v0c-0.293 0.156-0.787 0.295-1.482 0.417v0l0.135 0.769 6.756-1.185c-0.079-0.452-0.275-0.672-0.586-0.66v0c-0.085-0.006-0.191 0.002-0.319 0.025z" fill="#cf7650" data-fill-palette-color="primary"></path><path d="M179.345 260.605v0c1.39-0.447 2.498-0.159 3.324 0.865v0c0.285 0.326 0.498 0.708 0.638 1.145v0c0.317 0.986 0.035 1.742-0.847 2.271v0c-0.465 0.257-1.154 0.522-2.067 0.794v0l-3.181 0.926c-0.634-2.309-0.368-4.033 0.8-5.173v0c0.373-0.386 0.817-0.662 1.333-0.828zM187.514 268.273v0l-0.83-0.025c-0.209 1.724-1.056 2.932-2.539 3.625v0c-0.19 0.083-0.372 0.152-0.549 0.209v0c-2.082 0.669-3.788-0.147-5.118-2.448v0c-0.379-0.641-0.712-1.373-0.998-2.196v0l3.582-1.087c2.427-0.737 3.907-1.465 4.44-2.184v0c0.407-0.57 0.493-1.221 0.258-1.952v0c-0.432-1.345-1.457-2.192-3.075-2.543v0c-1.157-0.262-2.369-0.189-3.635 0.218v0c-2.474 0.795-3.915 2.393-4.325 4.793v0c-0.211 1.249-0.1 2.545 0.333 3.89v0c0.789 2.454 2.256 3.992 4.4 4.613v0c1.273 0.354 2.582 0.315 3.926-0.118v0c2.141-0.688 3.466-1.964 3.976-3.827v0c0.073-0.333 0.124-0.656 0.154-0.968z" fill="#cf7650" data-fill-palette-color="primary"></path><path d="M201.085 265.433l11.947-6.636-2.896-5.532-0.548 0.305 0.56 2.088c0.491 1.915 0.292 3.273-0.597 4.072v0c-0.196 0.156-0.396 0.29-0.599 0.404v0l-3.731 2.072-8.299-14.941 2.293-1.273-0.395-0.711-6.823 3.79 0.394 0.71 2.185-1.213 8.299 14.941-2.185 1.214z" fill="#cf7650" data-fill-palette-color="primary"></path><path d="M214.435 242.043v0c1.176-0.865 2.318-0.944 3.426-0.236v0c0.374 0.219 0.697 0.513 0.969 0.883v0c0.613 0.834 0.586 1.641-0.082 2.423v0c-0.359 0.392-0.928 0.861-1.707 1.409v0l-2.722 1.888c-1.335-1.988-1.63-3.708-0.885-5.158v0c0.231-0.485 0.564-0.887 1.001-1.209zM224.616 246.719v0l-0.794 0.24c0.349 1.701-0.07 3.115-1.257 4.244v0c-0.153 0.138-0.305 0.263-0.454 0.372v0c-1.762 1.296-3.639 1.064-5.631-0.695v0c-0.563-0.488-1.111-1.076-1.643-1.766v0l3.051-2.168c2.068-1.47 3.24-2.63 3.516-3.481v0c0.205-0.67 0.08-1.314-0.375-1.933v0c-0.837-1.138-2.078-1.616-3.724-1.435v0c-1.18 0.119-2.306 0.573-3.377 1.362v0c-2.093 1.54-2.952 3.513-2.578 5.918v0c0.197 1.251 0.714 2.445 1.551 3.583v0c1.528 2.076 3.407 3.069 5.637 2.976v0c1.32-0.069 2.548-0.522 3.686-1.358v0c1.811-1.333 2.663-2.963 2.554-4.892v0c-0.037-0.339-0.091-0.661-0.162-0.967z" fill="#cf7650" data-fill-palette-color="primary"></path><path d="M238.513 238.157v0c1.149-1.11 1.114-2.419-0.106-3.929v0c-0.071-0.103-0.142-0.192-0.213-0.265v0l-0.606 0.542c0.949 1.19 1.191 2.023 0.727 2.5v0c-0.418 0.347-0.994 0.155-1.728-0.576v0l-4.572-4.734c-2.067-2.14-4.228-2.236-6.482-0.288v0c-0.133 0.129-0.269 0.26-0.407 0.393v0c-1.672 1.614-2.42 3.085-2.244 4.412v0c0.07 0.428 0.229 0.77 0.476 1.026v0c0.448 0.464 0.924 0.523 1.43 0.178v0c0.088-0.057 0.169-0.121 0.243-0.192v0c0.345-0.333 0.39-0.796 0.134-1.387v0c-0.321-0.757-0.497-1.226-0.528-1.406v0c-0.076-0.651 0.185-1.265 0.781-1.841v0c1.496-1.264 2.966-1.192 4.411 0.216v0l1.364 1.413c-3.516 3.396-4.821 6.071-3.915 8.026v0c0.187 0.372 0.441 0.723 0.76 1.053v0c1.095 1.134 2.346 1.428 3.752 0.88v0c0.562-0.228 1.067-0.558 1.515-0.992v0c1.095-1.057 1.655-2.318 1.681-3.781v0c-0.005-0.548-0.093-1.044-0.265-1.488v0c1.468 1.155 2.732 1.236 3.792 0.24zM233.181 241.577v0c-0.912 0.881-1.913 0.965-3.001 0.253v0c-0.244-0.164-0.49-0.375-0.738-0.631v0c-0.967-1.001-1.007-2.192-0.119-3.573v0c0.488-0.728 1.307-1.662 2.456-2.801v0l1.728 1.79c0.778 1.25 0.936 2.504 0.473 3.761v0c-0.202 0.481-0.469 0.882-0.799 1.201z" fill="#cf7650" data-fill-palette-color="primary"></path><path d="M232.292 224.975l0.603 0.496 1.385-1.683 6.79 5.586c2.098 1.54 3.893 1.467 5.385-0.217v0c1.215-1.477 1.07-3.146-0.435-5.006v0c-0.016-0.013-0.032-0.026-0.048-0.039v0l-0.663 0.547c1.003 1.5 1.242 2.682 0.718 3.546v0c-0.746 0.842-1.727 0.777-2.942-0.196v0l-7.322-6.024 3.078-3.74-0.604-0.497-3.077 3.74-2.795-2.299-0.975 2.22 2.287 1.882z" fill="#cf7650" data-fill-palette-color="primary"></path><path d="M253.44 217.28v0l-0.842 1.316-5.674-3.63c-1.594-1.02-2.396-2.311-2.406-3.872v0c-0.008-0.648 0.145-1.218 0.459-1.709v0c0.684-1.068 1.66-1.493 2.929-1.276v0c0.595 0.112 1.182 0.354 1.759 0.723v0l4.937 3.16c0.808 0.517 1.167 1.019 1.075 1.506v0c-0.069 0.298-0.293 0.744-0.674 1.339v0l0.659 0.422 3.697-5.778c-0.387-0.248-0.683-0.25-0.887-0.006v0c-0.062 0.058-0.126 0.139-0.192 0.243v0l-0.843 1.317-6.513-4.169c-1.911-1.223-3.61-1.424-5.098-0.601v0c-0.557 0.336-1.014 0.783-1.373 1.344v0c-0.828 1.293-1.052 2.68-0.672 4.16v0c0.168 0.628 0.445 1.2 0.831 1.716v0l-8.428-5.393-2.522 3.941 0.649 0.415 1.264-1.974 14.188 9.08c0.808 0.517 1.145 1.054 1.008 1.61v0c-0.083 0.321-0.315 0.779-0.696 1.373v0l0.659 0.422 3.78-5.907c-0.387-0.248-0.681-0.253-0.881-0.015v0c-0.062 0.058-0.126 0.139-0.193 0.243z" fill="#cf7650" data-fill-palette-color="primary"></path><path d="M252.68 193.779v0c0.611-1.326 1.573-1.948 2.885-1.864v0c0.433 0.011 0.858 0.112 1.275 0.304v0c0.94 0.433 1.307 1.153 1.1 2.16v0c-0.125 0.516-0.395 1.203-0.813 2.06v0l-1.469 2.969c-2.13-1.094-3.22-2.457-3.269-4.087v0c-0.033-0.536 0.064-1.05 0.291-1.542zM263.853 192.947v0l-0.579 0.594c1.128 1.32 1.446 2.76 0.953 4.322v0c-0.067 0.195-0.14 0.377-0.217 0.545v0c-0.915 1.986-2.67 2.692-5.265 2.116v0c-0.729-0.155-1.493-0.405-2.293-0.751v0l1.622-3.374c1.098-2.287 1.563-3.869 1.394-4.747v0c-0.145-0.686-0.566-1.189-1.264-1.51v0c-1.283-0.591-2.601-0.409-3.953 0.545v0c-0.975 0.675-1.741 1.617-2.297 2.826v0c-1.087 2.36-0.885 4.502 0.606 6.427v0c0.777 1 1.808 1.795 3.09 2.385v0c2.341 1.078 4.466 1.038 6.374-0.121v0c1.122-0.699 1.978-1.689 2.569-2.972v0c0.941-2.042 0.897-3.882-0.131-5.518v0c-0.196-0.279-0.399-0.535-0.609-0.767z" fill="#cf7650" data-fill-palette-color="primary"></path><path d="M269.638 182.584v0l-0.681 2.136-5.908-1.883c-1.803-0.575-3.073-1.591-3.81-3.049v0c-0.279-0.571-0.381-1.006-0.306-1.306v0c0.108-0.34 0.454-0.568 1.038-0.684v0c0.657-0.143 1.069-0.339 1.234-0.589v0c0.077-0.105 0.134-0.216 0.171-0.334v0c0.189-0.594 0.023-1.065-0.5-1.411v0c-0.105-0.077-0.216-0.134-0.334-0.171v0c-0.895-0.285-1.586-0.002-2.073 0.85v0c-0.102 0.183-0.181 0.363-0.237 0.54v0c-0.379 1.189-0.214 2.411 0.494 3.665v0c0.337 0.59 0.763 1.106 1.276 1.551v0l-2.977-0.819-1.373 4.311 0.744 0.237 0.712-2.234 9.357 2.982c0.914 0.291 1.378 0.723 1.39 1.296v0c0.002 0.332-0.104 0.834-0.318 1.506v0l0.744 0.238 2.339-7.339c-0.438-0.139-0.723-0.068-0.856 0.213v0c-0.045 0.072-0.087 0.17-0.126 0.294z" fill="#cf7650" data-fill-palette-color="primary"></path><path d="M2.681 142.97c0-4.277 3.467-7.744 7.743-7.744 4.277 0 7.744 3.467 7.744 7.744 0 4.277-3.467 7.744-7.744 7.744-4.277 0-7.744-3.467-7.743-7.744z" fill="#cf7650" data-fill-palette-color="primary"></path><path d="M261.832 142.97c0-4.277 3.467-7.744 7.744-7.744 4.277 0 7.744 3.467 7.743 7.744 0 4.277-3.467 7.744-7.743 7.744-4.277 0-7.744-3.467-7.744-7.744z" fill="#cf7650" data-fill-palette-color="primary"></path></g><g id="text-1"></g></svg></g></svg></g></svg></g><g></g></svg></g><defs></defs></svg><rect width="280" height="280" fill="none" stroke="none" visibility="hidden"></rect></g></svg></g></svg>