<svg xmlns="http://www.w3.org/2000/svg" version="1.1" xmlns:xlink="http://www.w3.org/1999/xlink" xmlns:svgjs="http://svgjs.dev/svgjs" width="1500" height="1500" viewBox="0 0 1500 1500"><rect width="1500" height="1500" fill="#ffffff"></rect><g transform="matrix(0.6666666666666666,0,0,0.6666666666666666,249.39393939393938,435.99032258064517)"><svg viewBox="0 0 396 248" data-background-color="#f9f6ed" preserveAspectRatio="xMidYMid meet" height="939" width="1500" xmlns="http://www.w3.org/2000/svg" xmlns:xlink="http://www.w3.org/1999/xlink"><g id="tight-bounds" transform="matrix(1,0,0,1,0.2400000000000091,0.4000000000000057)"><svg viewBox="0 0 395.52 247.2" height="247.2" width="395.52"><g><svg></svg></g><g><svg viewBox="0 0 395.52 247.2" height="247.2" width="395.52"><g transform="matrix(1,0,0,1,75.54432,70.58342723923047)"><svg viewBox="0 0 244.43135999999998 106.03314552153904" height="106.03314552153904" width="244.43135999999998"><g><svg viewBox="0 0 244.43136 106.03314552153905" height="106.03314552153904" width="244.43135999999998"><g transform="matrix(1,0,0,1,0,63.94561274132866)"><svg viewBox="0 0 244.43136 42.087532780210395" height="42.087532780210395" width="244.43136"><g id="textblocktransform"><svg viewBox="0 0 244.43136 42.087532780210395" height="42.087532780210395" width="244.43136" id="textblock"><g><svg viewBox="0 0 244.43136 24.48636218454177" height="24.48636218454177" width="244.43136"><g transform="matrix(1,0,0,1,0,0)"><svg width="244.43136" viewBox="4.45 -36.5 480.6 48.15" height="24.48636218454177" data-palette-color="#21272d"><path d="M37.75-5.7Q37.75-2.1 38.35-0.35L38.35-0.35Q37.3 0.55 36 0.55L36 0.55Q35.05 0.55 34.45-0.05 33.85-0.65 33.85-1.65L33.85-1.65 33.75-29.8 22.8-5.45Q21.6-5 20.6-5L20.6-5Q19.7-5 19-5.35L19-5.35Q13.35-16.05 7.2-29.65L7.2-29.65 7.25-5.7Q7.25-1.95 7.9-0.05L7.9-0.05Q7.2 0.55 6.25 0.55L6.25 0.55Q4.8 0.55 4.8-1.3L4.8-1.3 4.75-28.95Q4.75-32.5 4.45-34.5L4.45-34.5Q5.05-35.1 7.1-35.1L7.1-35.1Q8.45-35.1 9.2-34.3L9.2-34.3 13.35-25.55 21.4-8.85Q22.4-11.05 28.35-24.6L28.35-24.6Q29.85-28.15 30.95-30.65 32.05-33.15 32.75-34.7L32.75-34.7Q33.8-35.1 35.2-35.1L35.2-35.1Q36.15-35.1 36.88-34.75 37.6-34.4 37.65-33.9L37.65-33.9 37.75-5.7ZM56.25 0.65Q50.7 0.65 47.87-1.43 45.05-3.5 45.05-6.75L45.05-6.75Q45.05-9.65 47.85-9.65L47.85-9.65Q48.4-9.65 48.75-9.6L48.75-9.6Q48.5-8.85 48.6-7.5L48.6-7.5Q48.75-4.6 50.87-2.9 53-1.2 56.65-1.2L56.65-1.2Q59.95-1.2 61.92-2.75 63.9-4.3 63.9-7.3L63.9-7.3Q63.9-9.25 63.02-10.65 62.15-12.05 60.52-13.25 58.9-14.45 55.9-16.1L55.9-16.1Q52.5-18 50.55-19.43 48.6-20.85 47.45-22.7 46.3-24.55 46.3-27.1L46.3-27.1Q46.3-31.2 49.3-33.25 52.3-35.3 56.9-35.3L56.9-35.3Q61.4-35.3 64.12-33.65 66.85-32 66.85-29.1L66.85-29.1Q66.85-27 64.85-26.8L64.85-26.8Q64.45-26.7 64.2-26.7L64.2-26.7Q63.9-26.7 63.3-26.8L63.3-26.8Q63.45-27.35 63.45-27.8L63.45-27.8Q63.45-28.4 63.3-28.9L63.3-28.9Q63.1-31.05 61.25-32.25 59.4-33.45 56.5-33.45L56.5-33.45Q53.85-33.45 51.97-32.25 50.1-31.05 50.1-28.35L50.1-28.35Q50.1-26.45 51.05-25.03 52-23.6 53.6-22.5 55.2-21.4 58.15-19.75L58.15-19.75Q61.3-18.05 63.35-16.55 65.4-15.05 66.65-13.05 67.9-11.05 67.9-8.4L67.9-8.4Q67.9-6 66.72-3.95 65.55-1.9 62.95-0.63 60.35 0.65 56.25 0.65L56.25 0.65ZM99.15-3.3Q99.45-2.7 99.45-2L99.45-2Q99.45-0.8 98.45-0.13 97.45 0.55 96.45 0.55L96.45 0.55Q94.59 0.55 93.52-0.63 92.45-1.8 91.4-4.4L91.4-4.4 89.09-10.3Q88.4-12 87.82-12.95 87.25-13.9 86.05-14.58 84.84-15.25 82.8-15.25L82.8-15.25 79.09-15.3 79.09-5.55Q79.09-4.35 79.25-2.8 79.4-1.25 79.75-0.35L79.75-0.35Q79.4 0 78.8 0.28 78.2 0.55 77.45 0.55L77.45 0.55Q76.4 0.55 75.75-0.05 75.09-0.65 75.05-1.65L75.05-1.65 75.05-28.85Q75.05-30.05 74.9-31.63 74.75-33.2 74.4-34.2L74.4-34.2Q76.5-35.3 81.75-35.3L81.75-35.3Q88.9-35.3 92.3-33.08 95.7-30.85 95.7-25.85L95.7-25.85Q95.7-22.25 93.62-19.75 91.55-17.25 88.05-16.35L88.05-16.35Q89.8-15.85 90.87-14.58 91.95-13.3 92.84-11.3L92.84-11.3 95.34-5.4Q95.95-3.95 96.5-3.33 97.05-2.7 97.7-2.65L97.7-2.65Q98.59-2.65 99.15-3.3L99.15-3.3ZM79.09-17.1L83-17.05Q86.65-17.15 88.97-19.45 91.3-21.75 91.3-25.5L91.3-25.5Q91.3-29.6 89.07-31.55 86.84-33.5 81.95-33.5L81.95-33.5Q80-33.5 79.09-33.35L79.09-33.35 79.09-17.1ZM124.39-9.85Q125.79-9.55 126.62-8.15 127.44-6.75 127.44-5.15L127.44-5.15Q127.44-2.8 125.67-1.35 123.89 0.1 120.44 0.05L120.44 0.05 108.74-0.1Q105.64-0.2 103.34 0.3L103.34 0.3 102.59-0.85Q102.59-1.9 102.89-2.78 103.19-3.65 103.89-4.55L103.89-4.55 122.39-31.55 110.19-31.15Q108.04-31.1 106.99-30.25 105.94-29.4 105.94-27.9L105.94-27.9Q105.94-27.15 106.24-26.6 106.54-26.05 107.14-25.45L107.14-25.45 106.69-25.4Q106.04-25.4 105.14-25.75L105.14-25.75Q104.09-26 103.39-27.2 102.69-28.4 102.69-29.8L102.69-29.8Q102.69-32 104.52-33.4 106.34-34.8 109.84-34.75L109.84-34.75 119.19-34.55Q121.74-34.55 123.07-34.63 124.39-34.7 125.29-34.95L125.29-34.95 126.14-33.75Q126.14-32.55 125.87-31.68 125.59-30.8 124.94-29.9L124.94-29.9 106.29-3.15 119.29-3.5Q121.59-3.55 122.74-4.33 123.89-5.1 124.09-6.3L124.09-6.3Q124.19-6.9 124.19-7.2L124.19-7.2Q124.19-8.7 123.09-9.9L123.09-9.9 123.74-9.95Q123.89-9.95 124.39-9.85L124.39-9.85ZM150.69 11.65Q147.04 11.65 144.61 10.13 142.19 8.6 142.19 5.65L142.19 5.65Q142.19 4 143.06 2.98 143.94 1.95 145.29 1.95L145.29 1.95Q146.69 1.95 147.29 2.7L147.29 2.7Q145.89 3.75 145.89 5.75L145.89 5.75Q145.89 7.8 147.24 8.88 148.59 9.95 150.84 9.95L150.84 9.95Q155.09 9.95 157.11 6.88 159.14 3.8 159.14-2.25L159.14-2.25 159.14-5.65Q158.24-2.85 156.09-1.33 153.94 0.2 150.84 0.2L150.84 0.2Q141.99 0.2 141.99-12.4L141.99-12.4Q141.99-18.15 144.51-22.1 147.04-26.05 153.39-26.05L153.39-26.05Q156.19-26.05 158.81-25.28 161.44-24.5 163.09-22.75L163.09-22.75 163.09-2.25Q163.09 11.65 150.69 11.65L150.69 11.65ZM151.89-2Q155.59-2 157.34-5.05 159.09-8.1 159.14-12.4L159.14-12.4 159.19-22.35Q158.34-23.25 156.79-23.73 155.24-24.2 153.34-24.2L153.34-24.2Q149.19-24.2 147.71-20.85 146.24-17.5 146.24-12L146.24-12Q146.24-6.7 147.61-4.35 148.99-2 151.89-2L151.89-2ZM188.98-6.45Q189.73-6.2 189.73-5.3L189.73-5.3Q189.73-4.8 189.44-3.95L189.44-3.95Q188.48-1.75 186.11-0.55 183.73 0.65 180.53 0.65L180.53 0.65Q175.03 0.65 171.94-2.78 168.83-6.2 168.83-12.55L168.83-12.55Q168.83-18.85 171.91-22.45 174.98-26.05 180.73-26.05L180.73-26.05Q184.88-26.05 187.38-24.18 189.88-22.3 189.88-18.85L189.88-18.85Q189.88-15.15 186.88-13.2 183.88-11.25 178.53-11.25L178.53-11.25Q175.58-11.25 173.13-11.6L173.13-11.6Q173.44-6.55 175.66-4.33 177.88-2.1 181.48-2.1L181.48-2.1Q184.23-2.1 186.23-3.23 188.23-4.35 188.98-6.45L188.98-6.45ZM180.58-24.25Q177.19-24.25 175.16-21.43 173.13-18.6 173.08-13.3L173.08-13.3Q175.48-13.1 176.98-13.05L176.98-13.05Q180.98-13.05 183.31-14.48 185.63-15.9 185.63-19.35L185.63-19.35Q185.63-22 184.19-23.13 182.73-24.25 180.58-24.25L180.58-24.25ZM217.03-5.7Q217.13-1.9 217.68-0.35L217.68-0.35Q216.68 0.55 215.38 0.55L215.38 0.55Q214.33 0.55 213.68-0.05 213.03-0.65 213.03-1.65L213.03-1.65 213.03-15.15Q212.98-19.5 211.81-21.6 210.63-23.7 207.83-23.7L207.83-23.7Q206.08-23.7 204.46-22.5 202.83-21.3 201.78-18.7 200.73-16.1 200.73-12.05L200.73-12.05Q200.73-5.6 200.83-3.65 200.93-1.7 201.43-0.35L201.43-0.35Q200.38 0.55 199.13 0.55L199.13 0.55Q198.08 0.55 197.43-0.1 196.78-0.75 196.78-1.85L196.78-1.85 196.78-20.3Q196.73-21.7 196.41-22.3 196.08-22.9 195.38-22.9L195.38-22.9Q194.43-22.9 194.08-22.1L194.08-22.1Q193.48-22.95 193.48-23.7L193.48-23.7Q193.48-24.75 194.28-25.38 195.08-26 196.48-26L196.48-26Q198.38-26 199.38-24.7 200.38-23.4 200.38-20.85L200.38-20.85 200.38-19.85Q201.43-22.8 203.68-24.43 205.93-26.05 208.98-26.05L208.98-26.05Q217.03-26.05 217.03-15.65L217.03-15.65 217.03-5.7ZM247.33-3.35Q247.93-2.55 247.93-1.8L247.93-1.8Q247.93-0.75 247.13-0.13 246.33 0.5 244.93 0.5L244.93 0.5Q241.03 0.5 241.03-4.6L241.03-4.6 241.03-5.6Q239.98-2.65 237.78-1 235.58 0.65 232.63 0.65L232.63 0.65Q228.53 0.65 226.68-1.75 224.83-4.15 224.78-9.85L224.78-9.85 224.78-19.75Q224.78-23.2 224.13-25.15L224.13-25.15Q225.23-26.05 226.48-26.05L226.48-26.05Q227.48-26.05 228.1-25.45 228.73-24.85 228.73-23.8L228.73-23.8 228.78-10.35Q228.78-7.1 229.25-5.2 229.73-3.3 230.81-2.43 231.88-1.55 233.78-1.55L233.78-1.55Q235.48-1.55 237.06-2.78 238.63-4 239.66-6.68 240.68-9.35 240.68-13.45L240.68-13.45Q240.68-19.9 240.58-21.85 240.48-23.8 239.98-25.15L239.98-25.15Q241.03-26.05 242.28-26.05L242.28-26.05Q243.28-26.05 243.93-25.4 244.58-24.75 244.58-23.65L244.58-23.65 244.63-5.15Q244.63-3.75 244.95-3.18 245.28-2.6 246.03-2.6L246.03-2.6Q246.93-2.6 247.33-3.35L247.33-3.35ZM255.53-30Q254.43-30 253.63-30.8 252.83-31.6 252.83-32.7L252.83-32.7Q252.83-33.85 253.63-34.63 254.43-35.4 255.53-35.4L255.53-35.4Q256.68-35.4 257.45-34.63 258.23-33.85 258.23-32.7L258.23-32.7Q258.23-31.6 257.45-30.8 256.68-30 255.53-30L255.53-30ZM257.73-5.7Q257.73-2.05 258.38-0.35L258.38-0.35Q257.33 0.55 256.08 0.55L256.08 0.55Q255.08 0.55 254.45-0.05 253.83-0.65 253.83-1.65L253.83-1.65 253.78-19.8Q253.78-23.25 253.13-25.15L253.13-25.15Q254.18-26.05 255.43-26.05L255.43-26.05Q256.43-26.05 257.05-25.48 257.68-24.9 257.68-23.85L257.68-23.85 257.73-5.7ZM287.03-5.7Q287.13-1.9 287.68-0.35L287.68-0.35Q286.68 0.55 285.38 0.55L285.38 0.55Q284.32 0.55 283.68-0.05 283.03-0.65 283.03-1.65L283.03-1.65 283.03-15.15Q282.98-19.5 281.8-21.6 280.63-23.7 277.82-23.7L277.82-23.7Q276.07-23.7 274.45-22.5 272.82-21.3 271.78-18.7 270.73-16.1 270.73-12.05L270.73-12.05Q270.73-5.6 270.82-3.65 270.93-1.7 271.43-0.35L271.43-0.35Q270.38 0.55 269.13 0.55L269.13 0.55Q268.07 0.55 267.43-0.1 266.78-0.75 266.78-1.85L266.78-1.85 266.78-20.3Q266.73-21.7 266.4-22.3 266.07-22.9 265.38-22.9L265.38-22.9Q264.43-22.9 264.07-22.1L264.07-22.1Q263.48-22.95 263.48-23.7L263.48-23.7Q263.48-24.75 264.28-25.38 265.07-26 266.48-26L266.48-26Q268.38-26 269.38-24.7 270.38-23.4 270.38-20.85L270.38-20.85 270.38-19.85Q271.43-22.8 273.68-24.43 275.93-26.05 278.98-26.05L278.98-26.05Q287.03-26.05 287.03-15.65L287.03-15.65 287.03-5.7ZM313.22-6.45Q313.97-6.2 313.97-5.3L313.97-5.3Q313.97-4.8 313.67-3.95L313.67-3.95Q312.72-1.75 310.35-0.55 307.97 0.65 304.77 0.65L304.77 0.65Q299.27 0.65 296.17-2.78 293.07-6.2 293.07-12.55L293.07-12.55Q293.07-18.85 296.15-22.45 299.22-26.05 304.97-26.05L304.97-26.05Q309.12-26.05 311.62-24.18 314.12-22.3 314.12-18.85L314.12-18.85Q314.12-15.15 311.12-13.2 308.12-11.25 302.77-11.25L302.77-11.25Q299.82-11.25 297.37-11.6L297.37-11.6Q297.67-6.55 299.9-4.33 302.12-2.1 305.72-2.1L305.72-2.1Q308.47-2.1 310.47-3.23 312.47-4.35 313.22-6.45L313.22-6.45ZM304.82-24.25Q301.42-24.25 299.4-21.43 297.37-18.6 297.32-13.3L297.32-13.3Q299.72-13.1 301.22-13.05L301.22-13.05Q305.22-13.05 307.55-14.48 309.87-15.9 309.87-19.35L309.87-19.35Q309.87-22 308.42-23.13 306.97-24.25 304.82-24.25L304.82-24.25ZM336.12 0.5Q333.87 0.5 332.62-0.95 331.37-2.4 331.37-5.05L331.37-5.05 331.37-34.3Q331.37-35.35 332.02-35.93 332.67-36.5 333.72-36.5L333.72-36.5Q334.97-36.5 336.02-35.6L336.02-35.6Q335.62-34.3 335.49-32.25 335.37-30.2 335.37-25.85L335.37-25.85 335.37-5.25Q335.37-3.95 335.84-3.28 336.32-2.6 337.27-2.6L337.27-2.6Q337.82-2.6 338.34-2.88 338.87-3.15 339.12-3.65L339.12-3.65Q339.67-2.9 339.67-2.1L339.67-2.1Q339.67-0.95 338.64-0.23 337.62 0.5 336.12 0.5L336.12 0.5ZM363.22-6.45Q363.97-6.2 363.97-5.3L363.97-5.3Q363.97-4.8 363.67-3.95L363.67-3.95Q362.72-1.75 360.34-0.55 357.97 0.65 354.76 0.65L354.76 0.65Q349.26 0.65 346.17-2.78 343.06-6.2 343.06-12.55L343.06-12.55Q343.06-18.85 346.14-22.45 349.22-26.05 354.97-26.05L354.97-26.05Q359.12-26.05 361.62-24.18 364.12-22.3 364.12-18.85L364.12-18.85Q364.12-15.15 361.12-13.2 358.12-11.25 352.76-11.25L352.76-11.25Q349.81-11.25 347.37-11.6L347.37-11.6Q347.67-6.55 349.89-4.33 352.12-2.1 355.72-2.1L355.72-2.1Q358.47-2.1 360.47-3.23 362.47-4.35 363.22-6.45L363.22-6.45ZM354.81-24.25Q351.42-24.25 349.39-21.43 347.37-18.6 347.31-13.3L347.31-13.3Q349.72-13.1 351.22-13.05L351.22-13.05Q355.22-13.05 357.54-14.48 359.87-15.9 359.87-19.35L359.87-19.35Q359.87-22 358.42-23.13 356.97-24.25 354.81-24.25L354.81-24.25ZM392.86-3.65Q393.41-2.9 393.41-2.1L393.41-2.1Q393.41-1 392.39-0.25 391.36 0.5 389.91 0.5L389.91 0.5Q387.76 0.5 386.66-1 385.56-2.5 385.56-5.7L385.56-5.7 385.56-7.15Q383.91-3.6 381.09-1.53 378.26 0.55 374.91 0.55L374.91 0.55Q372.01 0.55 370.34-1.03 368.66-2.6 368.66-5.25L368.66-5.25Q368.66-8.2 370.91-10.25 373.16-12.3 376.96-13.35L376.96-13.35Q380.31-14.25 383.91-14.25L383.91-14.25Q384.91-14.25 385.36-14.2L385.36-14.2 385.36-15.5Q385.36-19.95 383.89-22.1 382.41-24.25 379.01-24.25L379.01-24.25Q376.81-24.25 375.31-23.3 373.81-22.35 373.81-20.2L373.81-20.2Q373.81-19.05 374.34-18.05 374.86-17.05 375.96-16.65L375.96-16.65Q375.16-15.65 373.56-15.65L373.56-15.65Q371.91-15.65 370.86-16.98 369.81-18.3 369.81-20.05L369.81-20.05Q369.81-22.95 372.36-24.5 374.91-26.05 379.36-26.05L379.36-26.05Q384.51-26.05 386.96-23.4 389.41-20.75 389.41-15.25L389.41-15.25 389.41-5.25Q389.41-2.6 391.21-2.6L391.21-2.6Q391.61-2.6 392.11-2.88 392.61-3.15 392.86-3.65L392.86-3.65ZM376.51-2.25Q378.51-2.25 380.59-3.73 382.66-5.2 384.04-7.6 385.41-10 385.46-12.6L385.46-12.6 384.31-12.65Q382.56-12.65 380.76-12.38 378.96-12.1 377.71-11.6L377.71-11.6Q375.51-10.8 374.26-9.4 373.01-8 373.01-6.1L373.01-6.1Q373.01-4.45 373.86-3.35 374.71-2.25 376.51-2.25L376.51-2.25ZM404.71-25.35Q405.51-25.35 406.84-25.4 408.16-25.45 408.96-25.5L408.96-25.5 408.91-24.4Q408.86-23.9 408.56-23.58 408.26-23.25 407.81-23.25L407.81-23.25 402.66-23.25 402.66-21.35 402.66-5.25Q402.66-3.95 403.26-3.25 403.86-2.55 405.06-2.55L405.06-2.55Q405.81-2.55 406.49-2.83 407.16-3.1 407.41-3.6L407.41-3.6Q407.96-2.85 407.96-2L407.96-2Q407.96-0.85 406.76-0.15 405.56 0.55 403.71 0.55L403.71 0.55Q401.36 0.55 400.01-0.93 398.66-2.4 398.66-5L398.66-5 398.66-23.25 397.96-23.25Q395.91-23.25 394.96-23.1L394.96-23.1 395.01-24.25Q395.06-25.35 396.11-25.35L396.11-25.35 398.66-25.35 398.66-29.8Q398.66-30.85 399.31-31.43 399.96-32 401.01-32L401.01-32Q402.26-32 403.31-31.1L403.31-31.1Q402.76-29.4 402.71-25.35L402.71-25.35 404.71-25.35ZM435.16-5.7Q435.16-2.1 435.76-0.35L435.76-0.35Q434.76 0.55 433.46 0.55L433.46 0.55Q432.46 0.55 431.83-0.05 431.21-0.65 431.21-1.65L431.21-1.65 431.16-15.15Q431.16-19.55 429.98-21.7 428.81-23.85 425.96-23.85L425.96-23.85Q424.21-23.85 422.58-22.63 420.96-21.4 419.93-18.75 418.91-16.1 418.91-12.05L418.91-12.05Q418.91-5.6 419.01-3.65 419.11-1.7 419.61-0.35L419.61-0.35Q418.56 0.55 417.31 0.55L417.31 0.55Q416.26 0.55 415.63-0.1 415.01-0.75 415.01-1.85L415.01-1.85 414.96-34.3Q414.96-35.4 415.56-35.95 416.16-36.5 417.21-36.5L417.21-36.5Q417.96-36.5 418.61-36.23 419.26-35.95 419.61-35.6L419.61-35.6Q419.21-34.35 419.08-32.63 418.96-30.9 418.91-27.8L418.91-27.8 418.86-20.25Q419.96-23 422.11-24.53 424.26-26.05 427.11-26.05L427.11-26.05Q431.21-26.05 433.16-23.43 435.11-20.8 435.11-15.65L435.11-15.65 435.16-5.7ZM461.31-6.45Q462.06-6.2 462.06-5.3L462.06-5.3Q462.06-4.8 461.76-3.95L461.76-3.95Q460.81-1.75 458.43-0.55 456.06 0.65 452.86 0.65L452.86 0.65Q447.36 0.65 444.26-2.78 441.16-6.2 441.16-12.55L441.16-12.55Q441.16-18.85 444.23-22.45 447.31-26.05 453.06-26.05L453.06-26.05Q457.21-26.05 459.71-24.18 462.21-22.3 462.21-18.85L462.21-18.85Q462.21-15.15 459.21-13.2 456.21-11.25 450.86-11.25L450.86-11.25Q447.91-11.25 445.46-11.6L445.46-11.6Q445.76-6.55 447.98-4.33 450.21-2.1 453.81-2.1L453.81-2.1Q456.56-2.1 458.56-3.23 460.56-4.35 461.31-6.45L461.31-6.45ZM452.91-24.25Q449.51-24.25 447.48-21.43 445.46-18.6 445.41-13.3L445.41-13.3Q447.81-13.1 449.31-13.05L449.31-13.05Q453.31-13.05 455.63-14.48 457.96-15.9 457.96-19.35L457.96-19.35Q457.96-22 456.51-23.13 455.06-24.25 452.91-24.25L452.91-24.25ZM479.3-26.05Q481.9-26.05 483.48-24.68 485.05-23.3 485.05-20.85L485.05-20.85Q485.05-19.2 484.1-18.13 483.15-17.05 481.85-17.05L481.85-17.05Q480.75-17.05 480.35-17.55L480.35-17.55Q480.9-18.4 481.1-19.13 481.3-19.85 481.3-20.75L481.3-20.75Q481.3-23.85 478.4-23.85L478.4-23.85Q476.15-23.85 474.63-20.98 473.1-18.1 473.1-12.05L473.1-12.05 473.1-9.35Q473.1-4.85 473.2-3.25 473.3-1.65 473.75-0.45L473.75-0.45Q472.7 0.45 471.4 0.45L471.4 0.45Q470.4 0.45 469.75-0.18 469.1-0.8 469.1-1.9L469.1-1.9 469.1-20.3Q469.1-21.7 468.78-22.3 468.45-22.9 467.7-22.9L467.7-22.9Q466.75-22.9 466.4-22.1L466.4-22.1Q465.8-22.95 465.8-23.7L465.8-23.7Q465.8-24.75 466.6-25.38 467.4-26 468.8-26L468.8-26Q470.75-26 471.73-24.63 472.7-23.25 472.65-20.55L472.65-20.55 472.65-20.3Q473.5-23.15 475.2-24.6 476.9-26.05 479.3-26.05L479.3-26.05Z" opacity="1" transform="matrix(1,0,0,1,0,0)" fill="#000000" class="wordmark-text-0" data-fill-palette-color="primary" id="text-0"></path></svg></g></svg></g><g transform="matrix(1,0,0,1,46.68638976,30.267004623619652)"><svg viewBox="0 0 151.05858048000002 11.820528156590743" height="11.820528156590743" width="151.05858048000002"><g transform="matrix(1,0,0,1,0,0)"><svg width="151.05858048000002" viewBox="1.34 -39.55 664.49 52" height="11.820528156590743" data-palette-color="#21272d"><path d="M17.16 0.49L17.16 0.49Q13.16 0.49 10.33-2.25L10.33-2.25 10.33 6.47Q10.33 8.35 11.15 8.81 11.96 9.28 15.28 9.28L15.28 9.28 15.28 11.96 1.64 11.96 1.64 9.28Q3.74 9.28 4.27 8.85 4.81 8.42 4.93 7.93 5.05 7.45 5.05 6.71L5.05 6.71 5.05-18.68Q5.05-20.43 4.75-20.97 4.44-21.51 3.08-21.51L3.08-21.51 1.34-21.51 1.34-24.19Q3.76-24.19 5.13-24.55 6.49-24.9 7.08-25.06 7.67-25.22 8.33-25.22L8.33-25.22Q9.62-25.22 10.02-24.48 10.42-23.73 10.42-22.09L10.42-22.09 10.42-22.02Q13.16-25.24 17.88-25.24 22.61-25.24 25.51-22.06 28.42-18.87 28.42-12.82 28.42-6.76 25.4-3.14 22.39 0.49 17.16 0.49ZM10.21-12.11Q10.21-7.62 11.94-5.03 13.67-2.44 16.58-2.44L16.58-2.44Q19.46-2.44 21.09-5.09 22.73-7.74 22.73-12.16L22.73-12.16Q22.73-19.21 19.31-21.48L19.31-21.48Q18.09-22.31 16.43-22.31 14.77-22.31 13.62-21.53 12.48-20.75 11.72-19.38L11.72-19.38Q10.21-16.6 10.21-12.11ZM50.63-4L50.63-4Q47.58 0.49 42.48 0.49L42.48 0.49Q38.79 0.49 36.74-1.78 34.69-4.05 34.69-8.57L34.69-8.57 34.69-18.7Q34.69-20.46 34.38-21 34.08-21.53 32.74-21.53L32.74-21.53 32.1-21.53 32.1-24.22Q34.35-24.22 35.36-24.57 36.37-24.93 36.81-25.09 37.25-25.24 37.89-25.24L37.89-25.24Q39.13-25.24 39.55-24.48 39.96-23.71 39.96-22.02L39.96-22.02 39.96-8.4Q39.96-5.71 40.52-4.74L40.52-4.74Q41.6-2.86 44.21-2.86L44.21-2.86Q45.97-2.86 47.68-4.25 49.39-5.64 50.1-7.5L50.1-7.5 50.1-18.7Q50.05-20.51 49.75-21.02 49.46-21.53 48.12-21.53L48.12-21.53 46.73-21.53 46.73-24.22Q49.05-24.22 50.3-24.57 51.56-24.93 52.1-25.09 52.63-25.24 53.27-25.24L53.27-25.24Q54.51-25.24 54.94-24.51 55.37-23.78 55.37-22.12L55.37-22.12 55.37-6.49Q55.37-4.13 55.59-3.56L55.59-3.56Q55.98-2.49 57.54-2.49L57.54-2.49Q58.37-2.49 58.96-2.76L58.96-2.76 58.96-0.39Q57.79 0.49 55.76 0.49L55.76 0.49Q51.51 0.49 50.63-4ZM61.59 0L61.59-2.69Q63.69-2.69 64.23-3.11 64.77-3.54 64.88-4.03 64.99-4.52 64.99-5.25L64.99-5.25 64.99-18.7Q64.99-20.46 64.68-21 64.37-21.53 63.03-21.53L63.03-21.53 61.54-21.53 61.54-24.22Q63.86-24.22 65.14-24.57 66.43-24.93 66.97-25.09 67.52-25.24 68.16-25.24L68.16-25.24Q69.4-25.24 69.83-24.51 70.26-23.78 70.26-22.12L70.26-22.12 70.26-21.63Q72.36-24.1 75.02-24.95L75.02-24.95Q75.97-25.24 76.92-25.24L76.92-25.24Q78.75-25.24 79.77-24.19 80.78-23.14 80.78-21.61 80.78-20.07 79.8-19.09 78.83-18.12 77.44-18.12L77.44-18.12Q76.07-18.12 75.18-19.09 74.29-20.07 74.38-21.53L74.38-21.53Q73.38-21.39 72.25-20.62 71.11-19.85 70.26-18.53L70.26-18.53 70.26-5.47Q70.26-4.54 70.42-3.99 70.58-3.44 71.27-3.06 71.97-2.69 75.46-2.69L75.46-2.69 75.46 0 61.59 0ZM106.46-11.25L106.46-11.25 89.52-11.25Q89.52-7.06 91.51-4.76 93.5-2.47 96.43-2.47L96.43-2.47Q100.36-2.47 102.07-5.71L102.07-5.71 105.71-5.74Q105.14-3.13 102.49-1.32 99.85 0.49 95.35 0.49 90.86 0.49 87.59-2.29L87.59-2.29Q83.68-5.64 83.68-11.72 83.68-17.8 86.8-21.52 89.91-25.24 95.72-25.24L95.72-25.24Q103.36-25.24 105.61-19.09L105.61-19.09Q106.51-16.63 106.51-14.43 106.51-12.23 106.46-11.25ZM100.82-14.92L100.82-14.92Q100.82-22.39 95.74-22.39L95.74-22.39Q92.89-22.39 91.29-20.17 89.69-17.94 89.54-14.01L89.54-14.01 100.8-14.01Q100.82-14.48 100.82-14.92ZM127.11 0L127.11-2.69Q129.24-2.69 130.03-3.27 130.82-3.86 130.82-5.3L130.82-5.3 130.82-31.74Q130.82-33.5 130.52-34.03 130.21-34.57 128.84-34.57L128.84-34.57 126.87-34.57 126.87-37.26Q129.33-37.26 130.72-37.61 132.12-37.96 132.71-38.12 133.31-38.28 133.97-38.28L133.97-38.28Q135.24-38.28 135.67-37.55 136.1-36.82 136.1-35.16L136.1-35.16 136.1-5.3Q136.1-3.78 136.74-3.23 137.39-2.69 139.76-2.69L139.76-2.69 139.76 0 127.11 0ZM166.49-11.25L166.49-11.25 149.55-11.25Q149.55-7.06 151.54-4.76 153.53-2.47 156.45-2.47L156.45-2.47Q160.39-2.47 162.09-5.71L162.09-5.71 165.73-5.74Q165.17-3.13 162.52-1.32 159.87 0.49 155.38 0.49 150.89 0.49 147.62-2.29L147.62-2.29Q143.71-5.64 143.71-11.72 143.71-17.8 146.82-21.52 149.94-25.24 155.75-25.24L155.75-25.24Q163.39-25.24 165.63-19.09L165.63-19.09Q166.54-16.63 166.54-14.43 166.54-12.23 166.49-11.25ZM160.85-14.92L160.85-14.92Q160.85-22.39 155.77-22.39L155.77-22.39Q152.91-22.39 151.32-20.17 149.72-17.94 149.57-14.01L149.57-14.01 160.82-14.01Q160.85-14.48 160.85-14.92ZM192.07-16.8L192.07-5.83Q192.07-2.93 193.22-2.93L193.22-2.93Q194.32-2.93 194.83-3.67 195.34-4.42 195.34-6.37L195.34-6.37 197.91-6.37Q197.93-6.05 197.93-5.37L197.93-5.37Q197.93-3.17 196.83-1.56L196.83-1.56Q195.49 0.49 192.56 0.49L192.56 0.49Q190.66 0.49 189.31-0.59 187.97-1.66 187.46-3.42L187.46-3.42Q183.92 0.49 178.5 0.49L178.5 0.49Q175.52 0.49 173.31-1.26 171.1-3 171.1-6.13L171.1-6.13Q171.1-11.55 179.11-14.14L179.11-14.14Q184.19-15.75 185.19-16.37 186.19-16.99 186.49-17.64 186.8-18.29 186.8-19.09L186.8-19.09Q186.8-20.53 185.38-21.5 183.97-22.46 181.7-22.46 179.43-22.46 177.69-21.24L177.69-21.24Q178.91-20.34 178.91-18.92 178.91-17.5 177.97-16.65 177.03-15.8 175.7-15.8 174.37-15.8 173.51-16.6 172.64-17.41 172.64-18.85L172.64-18.85Q172.64-21.7 175.52-23.47 178.4-25.24 182.53-25.24L182.53-25.24Q189.9-25.24 191.54-20.46L191.54-20.46Q192.07-18.87 192.07-16.8L192.07-16.8ZM181.31-11.91Q179.16-10.99 178.08-9.53 177.01-8.08 177.01-6.37 177.01-4.66 177.94-3.78 178.86-2.91 180.26-2.91L180.26-2.91Q183.09-2.91 184.94-4.9 186.8-6.88 186.8-10.45L186.8-10.45 186.8-14.21Q185.24-13.4 183.49-12.74 181.75-12.08 181.31-11.91L181.31-11.91ZM209.55 0.49L209.55 0.49Q201.86 0.49 201.86-8.06L201.86-8.06 201.86-20.26Q201.86-21.22 201.63-21.52 201.4-21.83 200.64-21.83L200.64-21.83 198.64-21.83 198.64-24.76 199.54-24.76Q201.4-24.76 202.26-25.93 203.13-27.1 203.2-29.79L203.2-29.79 203.23-31.96 207.13-31.96 207.13-24.76 214.63-24.76 214.63-21.83 207.13-21.83 207.13-8.13Q207.13-3.59 209.23-2.71L209.23-2.71Q209.82-2.47 210.4-2.47L210.4-2.47Q212.97-2.47 213.75-6.69L213.75-6.69 216.58-6.69Q216.34-1.68 212.41-0.05L212.41-0.05Q211.14 0.49 209.55 0.49ZM234.94-21.58L234.94-21.58Q230.93-21.58 228.44-19.09L228.44-19.09 228.44-5.25Q228.44-3.74 228.93-3.34L228.93-3.34Q229.79-2.69 232.16-2.69L232.16-2.69 232.16 0 219.75 0 219.75-2.69Q221.85-2.69 222.39-3.11 222.93-3.54 223.05-4.03 223.17-4.52 223.17-5.25L223.17-5.25 223.17-31.74Q223.17-33.5 222.87-34.03 222.56-34.57 221.19-34.57L221.19-34.57 219.7-34.57 219.7-37.26Q222-37.26 223.31-37.61 224.61-37.96 225.16-38.12 225.71-38.28 226.34-38.28L226.34-38.28Q227.64-38.28 228.04-37.54 228.44-36.79 228.44-35.16L228.44-35.16 228.44-21.97Q230.96-24.17 234.5-24.98L234.5-24.98Q235.65-25.24 236.75-25.24L236.75-25.24Q244.66-25.24 244.66-14.75L244.66-14.75 244.66-5.3Q244.66-3.69 245.12-3.19 245.58-2.69 247.66-2.69L247.66-2.69 247.66 0 236.11 0 236.11-2.69Q238.33-2.69 238.78-3.14 239.24-3.59 239.31-4.08 239.38-4.57 239.38-5.3L239.38-5.3 239.38-14.43Q239.38-17.82 238.75-19.09L238.75-19.09Q237.5-21.58 234.94-21.58ZM274.05-11.25L274.05-11.25 257.1-11.25Q257.1-7.06 259.09-4.76 261.08-2.47 264.01-2.47L264.01-2.47Q267.94-2.47 269.65-5.71L269.65-5.71 273.29-5.74Q272.73-3.13 270.08-1.32 267.43 0.49 262.94 0.49 258.45 0.49 255.18-2.29L255.18-2.29Q251.27-5.64 251.27-11.72 251.27-17.8 254.38-21.52 257.49-25.24 263.31-25.24L263.31-25.24Q270.95-25.24 273.19-19.09L273.19-19.09Q274.1-16.63 274.1-14.43 274.1-12.23 274.05-11.25ZM268.41-14.92L268.41-14.92Q268.41-22.39 263.33-22.39L263.33-22.39Q260.47-22.39 258.87-20.17 257.27-17.94 257.13-14.01L257.13-14.01 268.38-14.01Q268.41-14.48 268.41-14.92ZM278.32 0L278.32-2.69Q280.42-2.69 280.95-3.11 281.49-3.54 281.6-4.03 281.71-4.52 281.71-5.25L281.71-5.25 281.71-18.7Q281.71-20.46 281.41-21 281.1-21.53 279.76-21.53L279.76-21.53 278.27-21.53 278.27-24.22Q280.59-24.22 281.87-24.57 283.15-24.93 283.7-25.09 284.25-25.24 284.88-25.24L284.88-25.24Q286.13-25.24 286.56-24.51 286.98-23.78 286.98-22.12L286.98-22.12 286.98-21.63Q289.08-24.1 291.74-24.95L291.74-24.95Q292.7-25.24 293.65-25.24L293.65-25.24Q295.48-25.24 296.49-24.19 297.51-23.14 297.51-21.61 297.51-20.07 296.53-19.09 295.55-18.12 294.16-18.12L294.16-18.12Q292.79-18.12 291.9-19.09 291.01-20.07 291.11-21.53L291.11-21.53Q290.11-21.39 288.97-20.62 287.84-19.85 286.98-18.53L286.98-18.53 286.98-5.47Q286.98-4.54 287.14-3.99 287.3-3.44 288-3.06 288.69-2.69 292.18-2.69L292.18-2.69 292.18 0 278.32 0ZM349.21-25.22L349.21-25.22Q356.39-25.22 356.39-14.75L356.39-14.75 356.39-5.3Q356.39-3.69 356.85-3.19 357.32-2.69 359.39-2.69L359.39-2.69 359.39 0 347.84 0 347.84-2.69Q350.07-2.69 350.52-3.14 350.97-3.59 351.04-4.08 351.11-4.57 351.11-5.3L351.11-5.3 351.11-14.43Q351.11-17.85 350.58-19.1 350.04-20.36 349.19-20.97 348.33-21.58 347.26-21.58L347.26-21.58Q345.3-21.58 343.52-20.8 341.74-20.02 340.69-18.75L340.69-18.75Q341.03-16.97 341.03-14.75L341.03-14.75 341.03-5.3Q341.03-3.69 341.5-3.19 341.96-2.69 344.03-2.69L344.03-2.69 344.03 0 332.49 0 332.49-2.69Q334.71-2.69 335.16-3.14 335.61-3.59 335.69-4.08 335.76-4.57 335.76-5.3L335.76-5.3 335.76-14.43Q335.76-17.85 335.22-19.1 334.68-20.36 333.83-20.97 332.98-21.58 331.9-21.58L331.9-21.58Q330.05-21.58 328.34-20.87 326.63-20.17 325.53-18.99L325.53-18.99 325.53-5.25Q325.53-3.71 326.02-3.32L326.02-3.32Q326.9-2.69 329.22-2.69L329.22-2.69 329.22 0 316.84 0 316.84-2.69Q318.94-2.69 319.47-3.11 320.01-3.54 320.13-4.03 320.26-4.52 320.26-5.25L320.26-5.25 320.26-18.55Q320.26-20.31 319.95-20.85 319.65-21.39 318.28-21.39L318.28-21.39 316.79-21.39 316.79-24.07Q319.08-24.07 320.41-24.43 321.74-24.78 322.31-24.94 322.87-25.1 323.53-25.1L323.53-25.1Q324.77-25.1 325.15-24.37 325.53-23.63 325.53-21.97L325.53-21.97 325.53-21.92Q328.02-24.1 331.58-24.95L331.58-24.95Q332.76-25.22 333.85-25.22L333.85-25.22Q338.22-25.22 339.93-21.31L339.93-21.31Q342.67-23.85 346.53-24.85L346.53-24.85Q347.89-25.22 349.21-25.22ZM384.12-16.8L384.12-5.83Q384.12-2.93 385.27-2.93L385.27-2.93Q386.37-2.93 386.88-3.67 387.39-4.42 387.39-6.37L387.39-6.37 389.96-6.37Q389.98-6.05 389.98-5.37L389.98-5.37Q389.98-3.17 388.88-1.56L388.88-1.56Q387.54 0.49 384.61 0.49L384.61 0.49Q382.7 0.49 381.36-0.59 380.02-1.66 379.51-3.42L379.51-3.42Q375.97 0.49 370.55 0.49L370.55 0.49Q367.57 0.49 365.36-1.26 363.15-3 363.15-6.13L363.15-6.13Q363.15-11.55 371.16-14.14L371.16-14.14Q376.23-15.75 377.24-16.37 378.24-16.99 378.54-17.64 378.85-18.29 378.85-19.09L378.85-19.09Q378.85-20.53 377.43-21.5 376.01-22.46 373.74-22.46 371.47-22.46 369.74-21.24L369.74-21.24Q370.96-20.34 370.96-18.92 370.96-17.5 370.02-16.65 369.08-15.8 367.75-15.8 366.42-15.8 365.55-16.6 364.69-17.41 364.69-18.85L364.69-18.85Q364.69-21.7 367.57-23.47 370.45-25.24 374.57-25.24L374.57-25.24Q381.95-25.24 383.58-20.46L383.58-20.46Q384.12-18.87 384.12-16.8L384.12-16.8ZM373.35-11.91Q371.21-10.99 370.13-9.53 369.06-8.08 369.06-6.37 369.06-4.66 369.98-3.78 370.91-2.91 372.3-2.91L372.3-2.91Q375.14-2.91 376.99-4.9 378.85-6.88 378.85-10.45L378.85-10.45 378.85-14.21Q377.28-13.4 375.54-12.74 373.79-12.08 373.35-11.91L373.35-11.91ZM415.83-3.2L415.83-3.2Q417.52-3.2 417.52-6.79L417.52-6.79 419.88-6.79Q420.06-6.01 420.06-5.41 420.06-4.81 420.03-4.08 420.01-3.34 419.49-2.2L419.49-2.2Q418.22 0.49 414.7 0.49 411.17 0.49 409.02-3.54L409.02-3.54Q408.41-4.69 407.82-5.86L407.82-5.86Q406.24-9.08 405.19-10.25L405.19-10.25Q403.38-12.23 400.82-12.23L400.82-12.23Q400.62-12.23 400.43-12.23 400.23-12.23 400.04-12.21L400.04-12.21 400.04-5.3Q400.04-3.78 400.68-3.23 401.33-2.69 403.67-2.69L403.67-2.69 403.67 0 391.05 0 391.05-2.69Q393.18-2.69 393.97-3.27 394.76-3.86 394.76-5.3L394.76-5.3 394.76-31.74Q394.76-33.5 394.46-34.03 394.15-34.57 392.78-34.57L392.78-34.57 390.81-34.57 390.81-37.26Q393.27-37.26 394.66-37.61 396.06-37.96 396.65-38.12 397.25-38.28 397.91-38.28L397.91-38.28Q399.18-38.28 399.61-37.55 400.04-36.82 400.04-35.16L400.04-35.16 400.04-14.87 401.28-14.87Q405.31-17.7 408.31-20.95L408.31-20.95Q408.8-21.46 409.04-21.83L409.04-21.83 404.82-21.83 404.82-24.76 418.3-24.76 418.3-21.83Q413.76-21.7 409-17.48L409-17.48Q407.56-16.24 406.11-14.82L406.11-14.82Q410.12-13.31 412.61-8.06L412.61-8.06Q413.22-6.74 413.73-5.65 414.24-4.57 414.73-3.88 415.22-3.2 415.83-3.2ZM445.32-11.25L445.32-11.25 428.38-11.25Q428.38-7.06 430.37-4.76 432.36-2.47 435.29-2.47L435.29-2.47Q439.22-2.47 440.93-5.71L440.93-5.71 444.56-5.74Q444-3.13 441.35-1.32 438.71 0.49 434.21 0.49 429.72 0.49 426.45-2.29L426.45-2.29Q422.54-5.64 422.54-11.72 422.54-17.8 425.66-21.52 428.77-25.24 434.58-25.24L434.58-25.24Q442.22-25.24 444.47-19.09L444.47-19.09Q445.37-16.63 445.37-14.43 445.37-12.23 445.32-11.25ZM439.68-14.92L439.68-14.92Q439.68-22.39 434.6-22.39L434.6-22.39Q431.75-22.39 430.15-20.17 428.55-17.94 428.4-14.01L428.4-14.01 439.66-14.01Q439.68-14.48 439.68-14.92ZM471.27 9.42L471.27 9.42Q471.9 9.55 472.33 9.53 472.76 9.52 473.36 9.12 473.95 8.72 474.52 8.06L474.52 8.06Q475.61 6.81 476.41 5.03 477.2 3.25 477.2 2.22 477.2 1.2 476.94 0.66 476.69 0.12 476.35-0.28 476-0.68 475.61-1.07 475.22-1.46 474.98-2.12L474.98-2.12 467.9-19.46Q467.39-20.97 466.83-21.52 466.26-22.07 464.36-22.07L464.36-22.07 464.36-24.76 477.49-24.76 477.49-22.07Q474.69-22.07 474.1-21.62 473.51-21.17 473.49-20.68 473.47-20.19 473.71-19.46L473.71-19.46 479.79-2.86 485.97-19.46Q486.53-20.87 485.62-21.47 484.72-22.07 481.79-22.07L481.79-22.07 481.79-24.76 493.17-24.76 493.17-22.07Q491.56-22.07 490.74-21.42 489.92-20.78 489.41-19.46L489.41-19.46 482.87-2Q482.01-0.07 481.25 1.76 480.5 3.59 479.72 5.2L479.72 5.2Q477.98 8.79 475.96 10.62 473.93 12.45 471.23 12.45 468.53 12.45 467.07 11.12 465.6 9.79 465.6 8.04 465.6 6.3 466.58 5.27 467.56 4.25 469.02 4.25L469.02 4.25Q471.12 4.25 471.93 6.1L471.93 6.1Q472.17 6.67 472.17 7.3L472.17 7.3Q472.17 8.52 471.27 9.42ZM494.58-12.5L494.58-12.5Q494.58-15.43 495.5-17.91 496.41-20.39 498.05-22.02L498.05-22.02Q501.27-25.24 506.62-25.24L506.62-25.24Q512.01-25.24 515.32-22.01 518.63-18.77 518.63-12.83 518.63-6.88 515.58-3.2 512.53 0.49 506.62 0.49L506.62 0.49Q500.71 0.49 497.65-3.09 494.58-6.67 494.58-12.5ZM506.62-2.44L506.62-2.44Q509.45-2.44 511.22-5.03 512.99-7.62 512.99-12.3L512.99-12.3Q512.99-19.85 509.18-21.73L509.18-21.73Q508.01-22.31 506.62-22.31L506.62-22.31Q502.1-22.31 500.73-16.85L500.73-16.85Q500.25-14.97 500.25-12.45L500.25-12.45Q500.25-7.62 502.02-5.03 503.79-2.44 506.62-2.44ZM540.92-4L540.92-4Q537.87 0.49 532.76 0.49L532.76 0.49Q529.08 0.49 527.03-1.78 524.97-4.05 524.97-8.57L524.97-8.57 524.97-18.7Q524.97-20.46 524.67-21 524.36-21.53 523.02-21.53L523.02-21.53 522.39-21.53 522.39-24.22Q524.63-24.22 525.65-24.57 526.66-24.93 527.1-25.09 527.54-25.24 528.17-25.24L528.17-25.24Q529.42-25.24 529.83-24.48 530.25-23.71 530.25-22.02L530.25-22.02 530.25-8.4Q530.25-5.71 530.81-4.74L530.81-4.74Q531.88-2.86 534.5-2.86L534.5-2.86Q536.25-2.86 537.96-4.25 539.67-5.64 540.38-7.5L540.38-7.5 540.38-18.7Q540.33-20.51 540.04-21.02 539.74-21.53 538.4-21.53L538.4-21.53 537.01-21.53 537.01-24.22Q539.33-24.22 540.59-24.57 541.84-24.93 542.38-25.09 542.92-25.24 543.55-25.24L543.55-25.24Q544.8-25.24 545.23-24.51 545.65-23.78 545.65-22.12L545.65-22.12 545.65-6.49Q545.65-4.13 545.87-3.56L545.87-3.56Q546.26-2.49 547.83-2.49L547.83-2.49Q548.66-2.49 549.24-2.76L549.24-2.76 549.24-0.39Q548.07 0.49 546.04 0.49L546.04 0.49Q541.8 0.49 540.92-4ZM551.88 0L551.88-2.69Q553.98-2.69 554.51-3.11 555.05-3.54 555.16-4.03 555.27-4.52 555.27-5.25L555.27-5.25 555.27-18.7Q555.27-20.46 554.96-21 554.66-21.53 553.32-21.53L553.32-21.53 551.83-21.53 551.83-24.22Q554.15-24.22 555.43-24.57 556.71-24.93 557.26-25.09 557.81-25.24 558.44-25.24L558.44-25.24Q559.69-25.24 560.12-24.51 560.54-23.78 560.54-22.12L560.54-22.12 560.54-21.63Q562.64-24.1 565.3-24.95L565.3-24.95Q566.26-25.24 567.21-25.24L567.21-25.24Q569.04-25.24 570.05-24.19 571.07-23.14 571.07-21.61 571.07-20.07 570.09-19.09 569.11-18.12 567.72-18.12L567.72-18.12Q566.35-18.12 565.46-19.09 564.57-20.07 564.67-21.53L564.67-21.53Q563.67-21.39 562.53-20.62 561.4-19.85 560.54-18.53L560.54-18.53 560.54-5.47Q560.54-4.54 560.7-3.99 560.86-3.44 561.56-3.06 562.25-2.69 565.74-2.69L565.74-2.69 565.74 0 551.88 0ZM590.15 0L590.15-2.69Q592.28-2.69 593.07-3.27 593.86-3.86 593.86-5.3L593.86-5.3 593.86-31.74Q593.86-33.5 593.56-34.03 593.25-34.57 591.89-34.57L591.89-34.57 589.91-34.57 589.91-37.26Q592.37-37.26 593.77-37.61 595.16-37.96 595.76-38.12 596.35-38.28 597.01-38.28L597.01-38.28Q598.28-38.28 598.71-37.55 599.14-36.82 599.14-35.16L599.14-35.16 599.14-5.3Q599.14-3.78 599.78-3.23 600.43-2.69 602.8-2.69L602.8-2.69 602.8 0 590.15 0ZM612.78-29.76L612.78-29.76Q611.19-29.76 610.08-30.82 608.97-31.88 608.97-33.42L608.97-33.42Q608.97-34.99 610.1-36.07 611.22-37.16 612.78-37.16L612.78-37.16Q614.34-37.16 615.47-36.07 616.59-34.99 616.59-33.42L616.59-33.42Q616.59-31.88 615.48-30.82 614.37-29.76 612.78-29.76ZM606.56 0L606.56-2.69Q608.83-2.69 609.4-3.11 609.97-3.54 610.1-4.03 610.22-4.52 610.22-5.25L610.22-5.25 610.22-18.7Q610.22-20.46 609.91-21 609.61-21.53 608.27-21.53L608.27-21.53 606.51-21.53 606.51-24.22Q608.9-24.22 610.27-24.57 611.63-24.93 612.2-25.09 612.76-25.24 613.42-25.24L613.42-25.24Q614.69-25.24 615.09-24.5 615.49-23.75 615.49-22.12L615.49-22.12 615.49-5.25Q615.49-3.71 615.98-3.32L615.98-3.32Q616.81-2.69 619.13-2.69L619.13-2.69 619.13 0 606.56 0ZM623.5 0L623.5-2.69Q625.62-2.69 626.16-3.11 626.7-3.54 626.81-4.03 626.92-4.52 626.92-5.25L626.92-5.25 626.92-20.26Q626.92-21.22 626.68-21.52 626.45-21.83 625.69-21.83L625.69-21.83 622.94-21.83 622.94-24.76 626.92-24.76 626.92-27.2Q626.92-32.89 629.64-36.22 632.36-39.55 636.9-39.55L636.9-39.55Q640-39.55 641.84-37.66 643.69-35.77 643.69-33.3 643.69-30.83 641.86-30L641.86-30Q641.25-29.74 640.59-29.74L640.59-29.74Q639.29-29.74 638.33-30.62 637.36-31.49 637.36-32.57L637.36-32.57Q637.36-34.62 639.17-35.23L639.17-35.23Q638.8-36.08 638.12-36.5 637.44-36.91 636.89-36.91 636.34-36.91 635.8-36.83 635.26-36.74 634.75-36.43L634.75-36.43Q632.24-34.94 632.24-27.54L632.24-27.54 632.24-24.76 639.61-24.76 639.61-21.83 632.24-21.83 632.24-5.47Q632.24-3.61 633.08-3.15 633.92-2.69 637.39-2.69L637.39-2.69 637.39 0 623.5 0ZM665.78-11.25L665.78-11.25 648.84-11.25Q648.84-7.06 650.83-4.76 652.82-2.47 655.75-2.47L655.75-2.47Q659.68-2.47 661.39-5.71L661.39-5.71 665.02-5.74Q664.46-3.13 661.81-1.32 659.16 0.49 654.67 0.49 650.18 0.49 646.91-2.29L646.91-2.29Q643-5.64 643-11.72 643-17.8 646.11-21.52 649.23-25.24 655.04-25.24L655.04-25.24Q662.68-25.24 664.93-19.09L664.93-19.09Q665.83-16.63 665.83-14.43 665.83-12.23 665.78-11.25ZM660.14-14.92L660.14-14.92Q660.14-22.39 655.06-22.39L655.06-22.39Q652.21-22.39 650.61-20.17 649.01-17.94 648.86-14.01L648.86-14.01 660.12-14.01Q660.14-14.48 660.14-14.92Z" opacity="1" transform="matrix(1,0,0,1,0,0)" fill="#000000" class="slogan-text-1" data-fill-palette-color="secondary" id="text-1"></path></svg></g></svg></g></svg></g></svg></g><g transform="matrix(1,0,0,1,93.13319484887461,0)"><svg viewBox="0 0 58.16497030225078 58.16497030225078" height="58.16497030225078" width="58.16497030225078"><g><svg xmlns="http://www.w3.org/2000/svg" viewBox="4 4 40 40" x="0" y="0" height="58.16497030225078" width="58.16497030225078" class="icon-icon-0" data-fill-palette-color="accent" id="icon-0"><g data-name="Make-Money" fill="#ea5141" data-fill-palette-color="accent"><path d="M9 31.93V34.18A3.01 3.01 0 0 0 7 37V42H5A1 1 0 0 1 4 41V29.27A7.96 7.96 0 0 0 9 31.93" fill="#000000" data-fill-palette-color="accent"></path><path d="M43 24H33A1 1 0 0 0 32 25V29A1 1 0 0 0 33 30H43A1 1 0 0 0 44 29V25A1 1 0 0 0 43 24M36 28H34V26H36Z" fill="#000000" data-fill-palette-color="accent"></path><path d="M22 7A5.006 5.006 0 0 0 17 12H27A5.006 5.006 0 0 0 22 7" fill="#000000" data-fill-palette-color="accent"></path><path d="M37 12V4H6V12H7V9.651A1 1 0 0 1 7.666 8.708 4.97 4.97 0 0 0 10.708 5.666 1 1 0 0 1 11.651 5H16V7H12.319A6.96 6.96 0 0 1 9 10.319V12H15A7 7 0 0 1 29 12H34V10.319A6.95 6.95 0 0 1 30.681 7H28V5H31.349A1 1 0 0 1 32.291 5.667 4.98 4.98 0 0 0 35.334 8.709 1 1 0 0 1 36 9.651V12Z" fill="#000000" data-fill-palette-color="accent"></path><path d="M10 18A6 6 0 1 0 16 24 6 6 0 0 0 10 18M10 22A2.006 2.006 0 0 0 8 24H6A4 4 0 0 1 10 20Z" fill="#000000" data-fill-palette-color="accent"></path><path d="M11 37V43A1 1 0 0 1 9 43V37A1 1 0 0 1 11 37" fill="#000000" data-fill-palette-color="accent"></path><path d="M30 25V29A3.01 3.01 0 0 0 33 32H40V41A1 1 0 0 1 39 42H13V37A3.01 3.01 0 0 0 11 34.18V31.93A8 8 0 1 0 4 18.72V15A1 1 0 0 1 5 14H39A1 1 0 0 1 40 15V22H33A3.01 3.01 0 0 0 30 25" fill="#000000" data-fill-palette-color="accent"></path></g></svg></g></svg></g><g></g></svg></g></svg></g><g><path d="M90.617 64.803A122.216 122.216 0 0 1 304.903 64.803L302.695 64.803A120.007 120.007 0 0 0 92.825 64.803L90.617 64.803M90.617 182.397A122.216 122.216 0 0 0 304.903 182.397L302.695 182.397A120.007 120.007 0 0 1 92.825 182.397L90.617 182.397" fill="#000000" stroke="transparent" data-fill-palette-color="tertiary"></path></g></svg></g><defs></defs></svg><rect width="395.52" height="247.2" fill="none" stroke="none" visibility="hidden"></rect></g></svg></g></svg>